<svg width="112" height="23" viewBox="0 0 112 23" fill="none" xmlns="http://www.w3.org/2000/svg">
<path d="M19.1856 12.4676L11.8878 0.200774C11.8525 0.140202 11.8013 0.0897459 11.7395 0.0544969C11.6776 0.019248 11.6073 0.000452833 11.5356 8.08084e-06C11.4639 -0.000436672 11.3933 0.0174846 11.331 0.0519636C11.2687 0.0864426 11.2169 0.13626 11.1808 0.196389L8.99516 3.87206C8.92358 3.99238 8.8859 4.12887 8.8859 4.2678C8.8859 4.40673 8.92358 4.54322 8.99516 4.66354L13.7537 12.6661C13.8254 12.7865 13.9285 12.8865 14.0526 12.956C14.1767 13.0254 14.3175 13.0619 14.4608 13.0618H18.832C18.9036 13.0616 18.9738 13.0432 19.0358 13.0083C19.0977 12.9735 19.1491 12.9236 19.1849 12.8634C19.2207 12.8033 19.2396 12.7351 19.2397 12.6656C19.2398 12.5962 19.2211 12.5279 19.1856 12.4676Z" fill="white"/>
<path d="M0.0562731 18.8787L7.35401 6.61189C7.38981 6.5518 7.44129 6.50191 7.50325 6.46722C7.5652 6.43254 7.63545 6.41428 7.70698 6.41428C7.7785 6.41428 7.84878 6.43254 7.91073 6.46722C7.97269 6.50191 8.02414 6.5518 8.05995 6.61189L10.2467 10.2843C10.3182 10.4048 10.3559 10.5415 10.3559 10.6806C10.3559 10.8197 10.3182 10.9563 10.2467 11.0769L5.48806 19.0794C5.41669 19.1998 5.31384 19.2998 5.18988 19.3693C5.06593 19.4388 4.92526 19.4753 4.78212 19.4751H0.409809C0.337782 19.4755 0.266949 19.4573 0.204507 19.4224C0.142065 19.3876 0.0902499 19.3373 0.054329 19.2767C0.018408 19.2161 -0.000338169 19.1474 4.61803e-06 19.0775C0.000347405 19.0076 0.0197595 18.939 0.0562731 18.8787Z" fill="white"/>
<path d="M8.0589 19.4725H22.6544C22.726 19.4724 22.7963 19.454 22.8583 19.4192C22.9202 19.3844 22.9716 19.3344 23.0074 19.2742C23.0431 19.2139 23.0618 19.1457 23.0617 19.0762C23.0616 19.0067 23.0427 18.9384 23.0068 18.8783L20.8234 15.2037C20.7518 15.0833 20.6487 14.9833 20.5246 14.9138C20.4005 14.8444 20.2597 14.8079 20.1164 14.808H10.5992C10.4559 14.8079 10.3151 14.8444 10.191 14.9138C10.0668 14.9833 9.96373 15.0833 9.89209 15.2037L7.70651 18.8783C7.67061 18.9384 7.65166 19.0067 7.65155 19.0762C7.65145 19.1457 7.67019 19.2139 7.7059 19.2742C7.74162 19.3344 7.79307 19.3844 7.85503 19.4192C7.917 19.454 7.98731 19.4724 8.0589 19.4725Z" fill="white"/>
<path d="M35.3323 12.0411V11.7666C35.3323 11.0768 35.0929 10.5489 34.6143 10.1829C34.1502 9.80284 33.541 9.6128 32.7868 9.6128C32.2066 9.6128 31.7497 9.71134 31.4161 9.90842C31.097 10.0914 30.7924 10.373 30.5024 10.753C30.4153 10.8657 30.3211 10.9431 30.2195 10.9853C30.118 11.0275 29.9802 11.0487 29.8062 11.0487H29.1535C28.9939 11.0487 28.8489 10.9923 28.7183 10.8797C28.6023 10.7671 28.5515 10.6334 28.566 10.4785C28.6096 10.0562 28.8199 9.64096 29.197 9.23273C29.5886 8.81042 30.1035 8.46553 30.7417 8.19807C31.3799 7.93061 32.0616 7.79688 32.7868 7.79688C34.1357 7.79688 35.2235 8.16288 36.0502 8.89488C36.8915 9.62688 37.3121 10.6545 37.3121 11.9777V18.4179C37.3121 18.5728 37.2541 18.7065 37.138 18.8191C37.022 18.9318 36.8842 18.9881 36.7247 18.9881H35.9197C35.7601 18.9881 35.6223 18.9318 35.5063 18.8191C35.3903 18.7065 35.3323 18.5728 35.3323 18.4179V17.5522C35.1002 18.059 34.6071 18.4602 33.8528 18.7558C33.0986 19.0514 32.3444 19.1992 31.5902 19.1992C30.8505 19.1992 30.1905 19.0725 29.6103 18.8191C29.0302 18.5517 28.5805 18.1927 28.2615 17.7423C27.9569 17.2918 27.8046 16.785 27.8046 16.2219C27.8046 15.1662 28.2107 14.3427 29.0229 13.7514C29.8352 13.1461 30.9157 12.7379 32.2646 12.5267L35.3323 12.0411ZM35.3323 13.7303L32.765 14.1315C31.8222 14.2723 31.0898 14.5046 30.5676 14.8283C30.0455 15.138 29.7844 15.5322 29.7844 16.0108C29.7844 16.3627 29.9512 16.6794 30.2848 16.961C30.6184 17.2425 31.126 17.3833 31.8077 17.3833C32.852 17.3833 33.7005 17.0947 34.3532 16.5176C35.0059 15.9404 35.3323 15.1873 35.3323 14.2582V13.7303Z" fill="white"/>
<path d="M42.4661 18.4179C42.4661 18.5728 42.4081 18.7065 42.2921 18.8191C42.176 18.9318 42.0382 18.9881 41.8787 18.9881H41.0737C40.9142 18.9881 40.7764 18.9318 40.6603 18.8191C40.5443 18.7065 40.4863 18.5728 40.4863 18.4179V4.56621C40.4863 4.41137 40.5443 4.27764 40.6603 4.16502C40.7764 4.0524 40.9142 3.9961 41.0737 3.9961H41.8787C42.0382 3.9961 42.176 4.0524 42.2921 4.16502C42.4081 4.27764 42.4661 4.41137 42.4661 4.56621V18.4179Z" fill="white"/>
<path d="M50.303 17.3833C51.7534 17.3833 52.7324 16.8343 53.2401 15.7363C53.3416 15.5251 53.4431 15.3773 53.5447 15.2929C53.6462 15.2084 53.784 15.1662 53.958 15.1662H54.6107C54.7703 15.1662 54.9081 15.2225 55.0241 15.3351C55.1401 15.4336 55.1982 15.5533 55.1982 15.6941C55.1982 16.1727 55.0024 16.6865 54.6107 17.2355C54.2191 17.7845 53.6535 18.249 52.9137 18.6291C52.174 19.0092 51.3038 19.1992 50.303 19.1992C49.2732 19.1992 48.3812 18.9881 47.627 18.5658C46.8727 18.1434 46.2926 17.5663 45.8865 16.8343C45.4803 16.0882 45.2555 15.2577 45.212 14.3427C45.1975 14.1737 45.1903 13.85 45.1903 13.3714C45.1903 13.0335 45.1975 12.7942 45.212 12.6534C45.3425 11.2176 45.8429 10.0492 46.7132 9.14826C47.5834 8.24734 48.78 7.79688 50.303 7.79688C51.3038 7.79688 52.1668 7.98692 52.892 8.36699C53.6317 8.733 54.1901 9.1905 54.5672 9.7395C54.9588 10.2744 55.1692 10.7812 55.1982 11.2598C55.2127 11.4147 55.1546 11.5484 55.0241 11.661C54.9081 11.7736 54.7703 11.8299 54.6107 11.8299H53.958C53.784 11.8299 53.6462 11.7877 53.5447 11.7032C53.4431 11.6188 53.3416 11.471 53.2401 11.2598C52.7324 10.1618 51.7534 9.6128 50.303 9.6128C49.5053 9.6128 48.8091 9.87323 48.2144 10.3941C47.6197 10.9149 47.2789 11.7032 47.1918 12.759C47.1773 12.9139 47.1701 13.1672 47.1701 13.5192C47.1701 13.8429 47.1773 14.0822 47.1918 14.2371C47.2934 15.2929 47.6342 16.0812 48.2144 16.602C48.8091 17.1229 49.5053 17.3833 50.303 17.3833Z" fill="white"/>
<path d="M67.8535 18.4179C67.8535 18.5728 67.7955 18.7065 67.6795 18.8191C67.5635 18.9318 67.4257 18.9881 67.2661 18.9881H66.4611C66.3016 18.9881 66.1638 18.9318 66.0478 18.8191C65.9317 18.7065 65.8737 18.5728 65.8737 18.4179V12.8435C65.8737 11.7877 65.6054 10.9853 65.0687 10.4363C64.5321 9.88731 63.7851 9.6128 62.8278 9.6128C61.8851 9.6128 61.1381 9.88731 60.5869 10.4363C60.0503 10.9853 59.7819 11.7877 59.7819 12.8435V18.4179C59.7819 18.5728 59.7239 18.7065 59.6079 18.8191C59.4919 18.9318 59.3541 18.9881 59.1945 18.9881H58.3895C58.23 18.9881 58.0922 18.9318 57.9762 18.8191C57.8601 18.7065 57.8021 18.5728 57.8021 18.4179V4.56621C57.8021 4.41137 57.8601 4.27764 57.9762 4.16502C58.0922 4.0524 58.23 3.9961 58.3895 3.9961H59.1945C59.3541 3.9961 59.4919 4.0524 59.6079 4.16502C59.7239 4.27764 59.7819 4.41137 59.7819 4.56621V9.23273C60.101 8.8245 60.5362 8.48665 61.0873 8.21918C61.653 7.93765 62.3419 7.79688 63.1542 7.79688C64.0679 7.79688 64.8802 7.98692 65.5909 8.36699C66.3016 8.74707 66.8528 9.29607 67.2444 10.014C67.6505 10.7178 67.8535 11.5554 67.8535 12.5267V18.4179Z" fill="white"/>
<path d="M75.4774 7.79688C77.0294 7.79688 78.255 8.27549 79.1543 9.23273C80.0535 10.19 80.5031 11.4921 80.5031 13.1391V13.7092C80.5031 13.864 80.4451 13.9978 80.3291 14.1104C80.2131 14.223 80.0753 14.2793 79.9157 14.2793H72.4315V14.406C72.4605 15.3351 72.7506 16.0671 73.3018 16.602C73.8675 17.1229 74.5927 17.3833 75.4774 17.3833C76.2026 17.3833 76.7611 17.2918 77.1527 17.1088C77.5588 16.9258 77.9214 16.6654 78.2405 16.3275C78.3565 16.2149 78.4581 16.1375 78.5451 16.0952C78.6466 16.053 78.7771 16.0319 78.9367 16.0319H79.5894C79.7634 16.0319 79.9085 16.0882 80.0245 16.2008C80.1405 16.3134 80.1913 16.4472 80.1768 16.602C80.1188 16.9821 79.9012 17.3763 79.5241 17.7845C79.1615 18.1786 78.6321 18.5165 77.9359 18.798C77.2542 19.0655 76.4347 19.1992 75.4774 19.1992C74.5492 19.1992 73.7224 18.9951 72.9972 18.5869C72.272 18.1646 71.6918 17.5874 71.2567 16.8554C70.8361 16.1234 70.5823 15.2999 70.4952 14.3849C70.4662 13.9626 70.4517 13.6388 70.4517 13.4136C70.4517 13.1884 70.4662 12.8646 70.4952 12.4423C70.5823 11.5695 70.8361 10.7812 71.2567 10.0773C71.6918 9.3735 72.2647 8.81746 72.9755 8.40922C73.7007 8.00099 74.5347 7.79688 75.4774 7.79688ZM78.5451 12.5056V12.4423C78.5451 11.5836 78.2622 10.9008 77.6966 10.3941C77.1454 9.87323 76.4057 9.6128 75.4774 9.6128C74.6362 9.6128 73.9182 9.87323 73.3236 10.3941C72.7434 10.9149 72.446 11.5977 72.4315 12.4423V12.5056H78.5451Z" fill="white"/>
<path d="M85.1077 9.23273C85.4558 8.79634 85.8474 8.45146 86.2825 8.19807C86.7176 7.93061 87.2978 7.79688 88.023 7.79688C89.72 7.79688 90.9093 8.40922 91.591 9.63392C92.0117 9.04269 92.4903 8.59223 93.027 8.28253C93.5636 7.95876 94.2671 7.79688 95.1373 7.79688C96.5587 7.79688 97.6103 8.21215 98.292 9.04269C98.9882 9.87323 99.3363 11.0487 99.3363 12.569V18.4179C99.3363 18.5728 99.2783 18.7065 99.1622 18.8191C99.0462 18.9318 98.9084 18.9881 98.7489 18.9881H97.9439C97.7843 18.9881 97.6466 18.9318 97.5305 18.8191C97.4145 18.7065 97.3565 18.5728 97.3565 18.4179V12.7801C97.3565 10.6686 96.5007 9.6128 94.7892 9.6128C94.006 9.6128 93.3823 9.86619 92.9182 10.373C92.454 10.8797 92.222 11.6328 92.222 12.6323V18.4179C92.222 18.5728 92.164 18.7065 92.0479 18.8191C91.9319 18.9318 91.7941 18.9881 91.6346 18.9881H90.8296C90.67 18.9881 90.5322 18.9318 90.4162 18.8191C90.3002 18.7065 90.2421 18.5728 90.2421 18.4179V12.7801C90.2421 10.6686 89.3864 9.6128 87.6749 9.6128C86.8917 9.6128 86.268 9.86619 85.8039 10.373C85.3397 10.8797 85.1077 11.6328 85.1077 12.6323V18.4179C85.1077 18.5728 85.0496 18.7065 84.9336 18.8191C84.8176 18.9318 84.6798 18.9881 84.5202 18.9881H83.7153C83.5557 18.9881 83.4179 18.9318 83.3019 18.8191C83.1859 18.7065 83.1278 18.5728 83.1278 18.4179V8.57815C83.1278 8.4233 83.1859 8.28957 83.3019 8.17695C83.4179 8.06434 83.5557 8.00803 83.7153 8.00803H84.5202C84.6798 8.00803 84.8176 8.06434 84.9336 8.17695C85.0496 8.28957 85.1077 8.4233 85.1077 8.57815V9.23273Z" fill="white"/>
<path d="M105.43 22.4932C105.299 22.8311 105.089 23 104.799 23H103.907C103.762 23 103.638 22.9507 103.537 22.8522C103.435 22.7537 103.384 22.634 103.384 22.4932C103.384 22.4369 103.392 22.3877 103.406 22.3454L105.495 17.9323L101.187 8.66261C101.173 8.62038 101.165 8.57111 101.165 8.5148C101.165 8.37403 101.216 8.25438 101.318 8.15584C101.419 8.0573 101.542 8.00803 101.688 8.00803H102.58C102.87 8.00803 103.08 8.17695 103.21 8.5148L106.561 15.6941L109.955 8.5148C110.085 8.17695 110.296 8.00803 110.586 8.00803H111.478C111.623 8.00803 111.746 8.0573 111.848 8.15584C111.949 8.25438 112 8.37403 112 8.5148C112 8.57111 111.993 8.62038 111.978 8.66261L105.43 22.4932Z" fill="white"/>
</svg>
