<svg width="24" height="24" viewBox="0 0 24 24" fill="none" xmlns="http://www.w3.org/2000/svg">
<path fill-rule="evenodd" clip-rule="evenodd" d="M24 5.84631C23.1724 6.20099 22.2266 6.43741 21.1626 6.55564C22.1084 5.96451 22.936 5.01868 23.2906 3.95464C22.3448 4.54577 21.2808 4.90045 20.2168 5.13691C19.3892 4.19109 18.0887 3.59998 16.67 3.59998C13.9507 3.59998 11.8227 5.72805 11.8227 8.32904C11.8227 8.68372 11.8227 9.03843 11.9409 9.39311C7.92118 9.15665 4.37439 7.26501 1.89163 4.42758C1.41872 5.13694 1.18227 5.96452 1.18227 6.79211C1.18227 8.44728 2.00985 9.86596 3.31034 10.8118C2.48276 10.8118 1.7734 10.5753 1.06404 10.2206C1.06404 10.2206 1.06404 10.2207 1.06404 10.3389C1.06404 12.7034 2.71921 14.5951 4.96552 15.068C4.61084 15.1862 4.13793 15.1862 3.66503 15.1862C3.31035 15.1862 3.07389 15.1862 2.71921 15.068C3.31034 16.9596 5.08375 18.3783 7.21182 18.3783C5.55665 19.6788 3.42858 20.3882 1.18227 20.3882C0.82759 20.3882 0.354683 20.3881 3.60799e-06 20.2699C2.12808 21.6886 4.72906 22.398 7.44827 22.398C16.3153 22.398 21.2808 15.068 21.2808 8.80197C21.2808 8.56552 21.2808 8.32907 21.2808 8.21084C22.5813 7.61971 23.4089 6.79212 24 5.84631Z" fill="#26A7DE"/>
</svg>
