<svg width="269" height="149" viewBox="0 0 269 149" fill="none" xmlns="http://www.w3.org/2000/svg">
<path d="M47.568 77.24C45.408 77.24 43.728 76.688 42.528 75.584C41.328 74.48 40.728 72.808 40.728 70.568V60.8C40.728 60.624 40.776 60.48 40.872 60.368C40.984 60.256 41.128 60.2 41.304 60.2H43.488C43.664 60.2 43.8 60.256 43.896 60.368C44.008 60.48 44.064 60.624 44.064 60.8V70.568C44.064 71.848 44.368 72.816 44.976 73.472C45.584 74.112 46.448 74.432 47.568 74.432C48.688 74.432 49.544 74.112 50.136 73.472C50.744 72.816 51.048 71.848 51.048 70.568V60.8C51.048 60.624 51.104 60.48 51.216 60.368C51.328 60.256 51.472 60.2 51.648 60.2H53.808C53.984 60.2 54.12 60.256 54.216 60.368C54.328 60.48 54.384 60.624 54.384 60.8V70.568C54.384 72.808 53.784 74.48 52.584 75.584C51.4 76.688 49.728 77.24 47.568 77.24ZM58.2934 81.56C58.1334 81.56 57.9974 81.504 57.8854 81.392C57.7734 81.296 57.7174 81.16 57.7174 80.984V65.096C57.7174 64.92 57.7734 64.784 57.8854 64.688C57.9974 64.576 58.1334 64.52 58.2934 64.52H60.1894C60.3654 64.52 60.5014 64.576 60.5974 64.688C60.7094 64.784 60.7654 64.92 60.7654 65.096V66.056C61.6614 64.872 62.9414 64.28 64.6054 64.28C66.2214 64.28 67.4614 64.792 68.3254 65.816C69.1894 66.824 69.6534 68.192 69.7174 69.92C69.7334 70.112 69.7414 70.392 69.7414 70.76C69.7414 71.144 69.7334 71.432 69.7174 71.624C69.6534 73.304 69.1894 74.664 68.3254 75.704C67.4614 76.728 66.2214 77.24 64.6054 77.24C62.9894 77.24 61.7574 76.672 60.9094 75.536V80.984C60.9094 81.16 60.8534 81.296 60.7414 81.392C60.6454 81.504 60.5094 81.56 60.3334 81.56H58.2934ZM63.7174 74.672C65.4454 74.672 66.3654 73.608 66.4774 71.48C66.4934 71.32 66.5014 71.08 66.5014 70.76C66.5014 70.44 66.4934 70.2 66.4774 70.04C66.3654 67.912 65.4454 66.848 63.7174 66.848C62.7894 66.848 62.1014 67.144 61.6534 67.736C61.2054 68.328 60.9574 69.056 60.9094 69.92L60.8854 70.832L60.9094 71.768C60.9414 72.568 61.1894 73.256 61.6534 73.832C62.1334 74.392 62.8214 74.672 63.7174 74.672ZM73.0356 77C72.8756 77 72.7396 76.944 72.6276 76.832C72.5156 76.72 72.4596 76.584 72.4596 76.424V60.536C72.4596 60.36 72.5156 60.224 72.6276 60.128C72.7396 60.016 72.8756 59.96 73.0356 59.96H75.0276C75.2036 59.96 75.3396 60.016 75.4356 60.128C75.5476 60.224 75.6036 60.36 75.6036 60.536V76.424C75.6036 76.584 75.5476 76.72 75.4356 76.832C75.3396 76.944 75.2036 77 75.0276 77H73.0356ZM84.3071 77.24C82.4351 77.24 80.9871 76.76 79.9631 75.8C78.9391 74.824 78.3871 73.496 78.3071 71.816L78.2831 70.76L78.3071 69.704C78.3871 68.04 78.9471 66.72 79.9871 65.744C81.0271 64.768 82.4671 64.28 84.3071 64.28C86.1471 64.28 87.5871 64.768 88.6271 65.744C89.6671 66.72 90.2271 68.04 90.3071 69.704C90.3231 69.896 90.3311 70.248 90.3311 70.76C90.3311 71.272 90.3231 71.624 90.3071 71.816C90.2271 73.496 89.6751 74.824 88.6511 75.8C87.6271 76.76 86.1791 77.24 84.3071 77.24ZM84.3071 74.864C85.1551 74.864 85.8111 74.6 86.2751 74.072C86.7391 73.528 86.9951 72.736 87.0431 71.696C87.0591 71.536 87.0671 71.224 87.0671 70.76C87.0671 70.296 87.0591 69.984 87.0431 69.824C86.9951 68.784 86.7391 68 86.2751 67.472C85.8111 66.928 85.1551 66.656 84.3071 66.656C83.4591 66.656 82.8031 66.928 82.3391 67.472C81.8751 68 81.6191 68.784 81.5711 69.824L81.5471 70.76L81.5711 71.696C81.6191 72.736 81.8751 73.528 82.3391 74.072C82.8031 74.6 83.4591 74.864 84.3071 74.864ZM96.6143 77.24C95.7983 77.24 95.0463 77.08 94.3583 76.76C93.6863 76.424 93.1503 75.976 92.7503 75.416C92.3663 74.856 92.1743 74.24 92.1743 73.568C92.1743 72.48 92.6143 71.6 93.4943 70.928C94.3743 70.256 95.5823 69.8 97.1183 69.56L100.406 69.08V68.576C100.406 67.872 100.23 67.344 99.8783 66.992C99.5263 66.64 98.9583 66.464 98.1743 66.464C97.6463 66.464 97.2143 66.568 96.8783 66.776C96.5583 66.968 96.3023 67.16 96.1103 67.352C95.9183 67.56 95.7903 67.696 95.7263 67.76C95.6623 67.952 95.5423 68.048 95.3663 68.048H93.5183C93.3743 68.048 93.2463 68 93.1343 67.904C93.0383 67.808 92.9902 67.68 92.9902 67.52C93.0063 67.12 93.1983 66.664 93.5663 66.152C93.9503 65.64 94.5343 65.2 95.3183 64.832C96.1023 64.464 97.0623 64.28 98.1983 64.28C100.086 64.28 101.462 64.704 102.326 65.552C103.19 66.4 103.622 67.512 103.622 68.888V76.424C103.622 76.584 103.566 76.72 103.454 76.832C103.358 76.944 103.222 77 103.046 77H101.102C100.942 77 100.806 76.944 100.694 76.832C100.582 76.72 100.526 76.584 100.526 76.424V75.488C100.174 76 99.6703 76.424 99.0143 76.76C98.3743 77.08 97.5743 77.24 96.6143 77.24ZM97.4303 74.96C98.3103 74.96 99.0303 74.672 99.5903 74.096C100.15 73.52 100.43 72.68 100.43 71.576V71.072L98.0303 71.456C97.1023 71.6 96.3983 71.832 95.9183 72.152C95.4543 72.472 95.2223 72.864 95.2223 73.328C95.2223 73.84 95.4383 74.24 95.8703 74.528C96.3023 74.816 96.8223 74.96 97.4303 74.96ZM111.333 77.24C109.717 77.24 108.477 76.72 107.613 75.68C106.749 74.64 106.285 73.256 106.221 71.528L106.197 70.736L106.221 69.968C106.269 68.288 106.725 66.92 107.589 65.864C108.469 64.808 109.717 64.28 111.333 64.28C112.885 64.28 114.117 64.808 115.029 65.864V60.536C115.029 60.36 115.085 60.224 115.197 60.128C115.309 60.016 115.445 59.96 115.605 59.96H117.645C117.821 59.96 117.957 60.016 118.053 60.128C118.165 60.224 118.221 60.36 118.221 60.536V76.424C118.221 76.584 118.165 76.72 118.053 76.832C117.957 76.944 117.821 77 117.645 77H115.749C115.589 77 115.453 76.944 115.341 76.832C115.229 76.72 115.173 76.584 115.173 76.424V75.536C114.261 76.672 112.981 77.24 111.333 77.24ZM112.221 74.672C113.149 74.672 113.837 74.376 114.285 73.784C114.733 73.192 114.981 72.464 115.029 71.6C115.045 71.408 115.053 71.096 115.053 70.664C115.053 70.248 115.045 69.944 115.029 69.752C114.997 68.952 114.741 68.272 114.261 67.712C113.797 67.136 113.117 66.848 112.221 66.848C110.493 66.848 109.573 67.912 109.461 70.04L109.437 70.76L109.461 71.48C109.573 73.608 110.493 74.672 112.221 74.672ZM130.528 77.24C129.712 77.24 128.96 77.08 128.272 76.76C127.6 76.424 127.064 75.976 126.664 75.416C126.28 74.856 126.088 74.24 126.088 73.568C126.088 72.48 126.528 71.6 127.408 70.928C128.288 70.256 129.496 69.8 131.032 69.56L134.32 69.08V68.576C134.32 67.872 134.144 67.344 133.792 66.992C133.44 66.64 132.872 66.464 132.088 66.464C131.56 66.464 131.128 66.568 130.792 66.776C130.472 66.968 130.216 67.16 130.024 67.352C129.832 67.56 129.704 67.696 129.64 67.76C129.576 67.952 129.456 68.048 129.28 68.048H127.432C127.288 68.048 127.16 68 127.048 67.904C126.952 67.808 126.904 67.68 126.904 67.52C126.92 67.12 127.112 66.664 127.48 66.152C127.864 65.64 128.448 65.2 129.232 64.832C130.016 64.464 130.976 64.28 132.112 64.28C134 64.28 135.376 64.704 136.24 65.552C137.104 66.4 137.536 67.512 137.536 68.888V76.424C137.536 76.584 137.48 76.72 137.368 76.832C137.272 76.944 137.136 77 136.96 77H135.016C134.856 77 134.72 76.944 134.608 76.832C134.496 76.72 134.44 76.584 134.44 76.424V75.488C134.088 76 133.584 76.424 132.928 76.76C132.288 77.08 131.488 77.24 130.528 77.24ZM131.344 74.96C132.224 74.96 132.944 74.672 133.504 74.096C134.064 73.52 134.344 72.68 134.344 71.576V71.072L131.944 71.456C131.016 71.6 130.312 71.832 129.832 72.152C129.368 72.472 129.136 72.864 129.136 73.328C129.136 73.84 129.352 74.24 129.784 74.528C130.216 74.816 130.736 74.96 131.344 74.96ZM141.191 77C141.031 77 140.895 76.944 140.783 76.832C140.671 76.72 140.615 76.584 140.615 76.424V65.096C140.615 64.936 140.671 64.8 140.783 64.688C140.895 64.576 141.031 64.52 141.191 64.52H143.159C143.319 64.52 143.455 64.576 143.567 64.688C143.679 64.8 143.735 64.936 143.735 65.096V66.08C144.679 64.88 146.015 64.28 147.743 64.28C149.215 64.28 150.383 64.768 151.247 65.744C152.111 66.704 152.543 68.016 152.543 69.68V76.424C152.543 76.584 152.487 76.72 152.375 76.832C152.279 76.944 152.143 77 151.967 77H149.855C149.695 77 149.559 76.944 149.447 76.832C149.335 76.72 149.279 76.584 149.279 76.424V69.824C149.279 68.88 149.047 68.152 148.583 67.64C148.135 67.112 147.479 66.848 146.615 66.848C145.767 66.848 145.095 67.112 144.599 67.64C144.119 68.168 143.879 68.896 143.879 69.824V76.424C143.879 76.584 143.823 76.72 143.711 76.832C143.615 76.944 143.479 77 143.303 77H141.191ZM161.556 62.456C161.396 62.456 161.26 62.4 161.148 62.288C161.036 62.176 160.98 62.04 160.98 61.88V60.152C160.98 59.992 161.036 59.856 161.148 59.744C161.26 59.632 161.396 59.576 161.556 59.576H163.74C163.9 59.576 164.036 59.632 164.148 59.744C164.276 59.856 164.34 59.992 164.34 60.152V61.88C164.34 62.04 164.284 62.176 164.172 62.288C164.06 62.4 163.916 62.456 163.74 62.456H161.556ZM161.652 77C161.492 77 161.356 76.944 161.244 76.832C161.132 76.72 161.076 76.584 161.076 76.424V65.096C161.076 64.936 161.132 64.8 161.244 64.688C161.356 64.576 161.492 64.52 161.652 64.52H163.644C163.82 64.52 163.956 64.576 164.052 64.688C164.164 64.784 164.22 64.92 164.22 65.096V76.424C164.22 76.584 164.164 76.72 164.052 76.832C163.956 76.944 163.82 77 163.644 77H161.652ZM167.98 77C167.82 77 167.684 76.944 167.572 76.832C167.46 76.72 167.404 76.584 167.404 76.424V65.096C167.404 64.936 167.46 64.8 167.572 64.688C167.684 64.576 167.82 64.52 167.98 64.52H169.852C170.012 64.52 170.148 64.576 170.26 64.688C170.372 64.8 170.428 64.936 170.428 65.096V65.912C171.26 64.824 172.42 64.28 173.908 64.28C175.684 64.28 176.924 64.992 177.628 66.416C178.012 65.776 178.556 65.264 179.26 64.88C179.964 64.48 180.724 64.28 181.54 64.28C182.852 64.28 183.924 64.728 184.756 65.624C185.588 66.52 186.004 67.824 186.004 69.536V76.424C186.004 76.584 185.948 76.72 185.836 76.832C185.74 76.944 185.604 77 185.428 77H183.46C183.3 77 183.164 76.944 183.052 76.832C182.94 76.72 182.884 76.584 182.884 76.424V69.728C182.884 68.72 182.668 67.992 182.236 67.544C181.82 67.08 181.26 66.848 180.556 66.848C179.932 66.848 179.396 67.08 178.948 67.544C178.516 68.008 178.3 68.736 178.3 69.728V76.424C178.3 76.584 178.244 76.72 178.132 76.832C178.02 76.944 177.884 77 177.724 77H175.756C175.596 77 175.46 76.944 175.348 76.832C175.236 76.72 175.18 76.584 175.18 76.424V69.728C175.18 68.72 174.956 67.992 174.508 67.544C174.076 67.08 173.524 66.848 172.852 66.848C172.212 66.848 171.668 67.08 171.22 67.544C170.788 68.008 170.572 68.736 170.572 69.728V76.424C170.572 76.584 170.516 76.72 170.404 76.832C170.292 76.944 170.156 77 169.996 77H167.98ZM192.685 77.24C191.869 77.24 191.117 77.08 190.429 76.76C189.757 76.424 189.221 75.976 188.821 75.416C188.437 74.856 188.245 74.24 188.245 73.568C188.245 72.48 188.685 71.6 189.565 70.928C190.445 70.256 191.653 69.8 193.189 69.56L196.477 69.08V68.576C196.477 67.872 196.301 67.344 195.949 66.992C195.597 66.64 195.029 66.464 194.245 66.464C193.717 66.464 193.285 66.568 192.949 66.776C192.629 66.968 192.373 67.16 192.181 67.352C191.989 67.56 191.861 67.696 191.797 67.76C191.733 67.952 191.613 68.048 191.437 68.048H189.589C189.445 68.048 189.317 68 189.205 67.904C189.109 67.808 189.061 67.68 189.061 67.52C189.077 67.12 189.269 66.664 189.637 66.152C190.021 65.64 190.605 65.2 191.389 64.832C192.173 64.464 193.133 64.28 194.269 64.28C196.157 64.28 197.533 64.704 198.397 65.552C199.261 66.4 199.693 67.512 199.693 68.888V76.424C199.693 76.584 199.637 76.72 199.525 76.832C199.429 76.944 199.293 77 199.117 77H197.173C197.013 77 196.877 76.944 196.765 76.832C196.653 76.72 196.597 76.584 196.597 76.424V75.488C196.245 76 195.741 76.424 195.085 76.76C194.445 77.08 193.645 77.24 192.685 77.24ZM193.501 74.96C194.381 74.96 195.101 74.672 195.661 74.096C196.221 73.52 196.501 72.68 196.501 71.576V71.072L194.101 71.456C193.173 71.6 192.469 71.832 191.989 72.152C191.525 72.472 191.293 72.864 191.293 73.328C191.293 73.84 191.509 74.24 191.941 74.528C192.373 74.816 192.893 74.96 193.501 74.96ZM208.412 82.28C206.988 82.28 205.836 82.04 204.956 81.56C204.076 81.096 203.452 80.56 203.084 79.952C202.716 79.344 202.532 78.824 202.532 78.392C202.532 78.248 202.588 78.12 202.7 78.008C202.828 77.896 202.964 77.84 203.108 77.84H205.196C205.34 77.84 205.46 77.872 205.556 77.936C205.668 78.016 205.756 78.152 205.82 78.344C205.98 78.776 206.236 79.136 206.588 79.424C206.956 79.728 207.524 79.88 208.292 79.88C209.252 79.88 209.956 79.664 210.404 79.232C210.868 78.8 211.1 78.056 211.1 77V75.368C210.22 76.408 208.988 76.928 207.404 76.928C205.74 76.928 204.484 76.416 203.636 75.392C202.804 74.368 202.356 72.992 202.292 71.264L202.268 70.616L202.292 69.968C202.356 68.272 202.812 66.904 203.66 65.864C204.508 64.808 205.756 64.28 207.404 64.28C208.252 64.28 208.996 64.44 209.636 64.76C210.276 65.08 210.812 65.52 211.244 66.08V65.12C211.244 64.944 211.3 64.8 211.412 64.688C211.524 64.576 211.66 64.52 211.82 64.52H213.764C213.924 64.52 214.06 64.584 214.172 64.712C214.284 64.824 214.34 64.96 214.34 65.12L214.364 76.688C214.364 78.464 213.868 79.84 212.876 80.816C211.884 81.792 210.396 82.28 208.412 82.28ZM208.292 74.384C209.204 74.384 209.884 74.096 210.332 73.52C210.796 72.944 211.052 72.24 211.1 71.408C211.116 71.28 211.124 71.016 211.124 70.616C211.124 70.232 211.116 69.976 211.1 69.848C211.052 69 210.796 68.288 210.332 67.712C209.884 67.136 209.204 66.848 208.292 66.848C206.564 66.848 205.652 67.912 205.556 70.04L205.532 70.616C205.532 71.752 205.732 72.664 206.132 73.352C206.548 74.04 207.268 74.384 208.292 74.384ZM222.937 77.24C221.161 77.24 219.745 76.728 218.689 75.704C217.649 74.664 217.097 73.208 217.033 71.336L217.009 70.736L217.033 70.136C217.113 68.312 217.673 66.88 218.713 65.84C219.769 64.8 221.177 64.28 222.937 64.28C224.825 64.28 226.281 64.856 227.305 66.008C228.345 67.16 228.865 68.696 228.865 70.616V71.12C228.865 71.28 228.809 71.416 228.697 71.528C228.585 71.64 228.441 71.696 228.265 71.696H220.297V71.888C220.329 72.768 220.569 73.512 221.017 74.12C221.481 74.712 222.113 75.008 222.913 75.008C223.857 75.008 224.617 74.64 225.193 73.904C225.337 73.728 225.449 73.616 225.529 73.568C225.625 73.52 225.761 73.496 225.937 73.496H228.001C228.145 73.496 228.265 73.544 228.361 73.64C228.473 73.72 228.529 73.824 228.529 73.952C228.529 74.336 228.297 74.792 227.833 75.32C227.385 75.832 226.737 76.28 225.889 76.664C225.041 77.048 224.057 77.24 222.937 77.24ZM225.601 69.68V69.608C225.601 68.664 225.361 67.904 224.881 67.328C224.417 66.752 223.769 66.464 222.937 66.464C222.105 66.464 221.457 66.752 220.993 67.328C220.529 67.904 220.297 68.664 220.297 69.608V69.68H225.601Z" fill="#212122"/>
<path d="M1.76 118C1.65333 118 1.56267 117.968 1.488 117.904C1.424 117.829 1.392 117.739 1.392 117.632V107.184C1.392 107.067 1.424 106.976 1.488 106.912C1.56267 106.837 1.65333 106.8 1.76 106.8H8.288C8.40533 106.8 8.496 106.837 8.56 106.912C8.63467 106.976 8.672 107.067 8.672 107.184V107.824C8.672 107.931 8.63467 108.021 8.56 108.096C8.496 108.16 8.40533 108.192 8.288 108.192H2.944V111.92H7.968C8.08533 111.92 8.176 111.957 8.24 112.032C8.31467 112.096 8.352 112.187 8.352 112.304V112.944C8.352 113.051 8.31467 113.141 8.24 113.216C8.16533 113.28 8.07467 113.312 7.968 113.312H2.944V117.632C2.944 117.739 2.90667 117.829 2.832 117.904C2.75733 117.968 2.66667 118 2.56 118H1.76ZM10.7678 108.128C10.6611 108.128 10.5704 108.096 10.4958 108.032C10.4318 107.957 10.3997 107.867 10.3997 107.76V106.896C10.3997 106.789 10.4318 106.699 10.4958 106.624C10.5704 106.549 10.6611 106.512 10.7678 106.512H11.7758C11.8824 106.512 11.9731 106.549 12.0478 106.624C12.1224 106.699 12.1598 106.789 12.1598 106.896V107.76C12.1598 107.867 12.1224 107.957 12.0478 108.032C11.9731 108.096 11.8824 108.128 11.7758 108.128H10.7678ZM10.8958 118C10.7891 118 10.6984 117.968 10.6238 117.904C10.5598 117.829 10.5278 117.739 10.5278 117.632V110.048C10.5278 109.941 10.5598 109.856 10.6238 109.792C10.6984 109.717 10.7891 109.68 10.8958 109.68H11.6638C11.7704 109.68 11.8558 109.717 11.9198 109.792C11.9944 109.856 12.0318 109.941 12.0318 110.048V117.632C12.0318 117.739 11.9944 117.829 11.9198 117.904C11.8558 117.968 11.7704 118 11.6638 118H10.8958ZM14.7868 118C14.6801 118 14.5894 117.968 14.5148 117.904C14.4508 117.829 14.4188 117.739 14.4188 117.632V107.008C14.4188 106.901 14.4508 106.816 14.5148 106.752C14.5894 106.677 14.6801 106.64 14.7868 106.64H15.5388C15.6454 106.64 15.7308 106.677 15.7948 106.752C15.8694 106.816 15.9068 106.901 15.9068 107.008V117.632C15.9068 117.739 15.8694 117.829 15.7948 117.904C15.7308 117.968 15.6454 118 15.5388 118H14.7868ZM21.6214 118.16C20.5227 118.16 19.6427 117.824 18.9814 117.152C18.3307 116.469 17.9734 115.541 17.9094 114.368L17.8934 113.824L17.9094 113.296C17.984 112.144 18.3467 111.227 18.9974 110.544C19.6587 109.861 20.528 109.52 21.6054 109.52C22.7894 109.52 23.7067 109.899 24.3574 110.656C25.008 111.403 25.3334 112.416 25.3334 113.696V113.968C25.3334 114.075 25.296 114.165 25.2214 114.24C25.1574 114.304 25.072 114.336 24.9654 114.336H19.4294V114.48C19.4614 115.173 19.6694 115.765 20.0534 116.256C20.448 116.736 20.9654 116.976 21.6054 116.976C22.096 116.976 22.496 116.88 22.8054 116.688C23.1254 116.485 23.36 116.277 23.5094 116.064C23.6054 115.936 23.6747 115.861 23.7174 115.84C23.7707 115.808 23.8614 115.792 23.9894 115.792H24.7734C24.8694 115.792 24.9494 115.819 25.0134 115.872C25.0774 115.925 25.1094 116 25.1094 116.096C25.1094 116.331 24.96 116.613 24.6614 116.944C24.3734 117.275 23.9627 117.563 23.4294 117.808C22.9067 118.043 22.304 118.16 21.6214 118.16ZM23.8134 113.232V113.184C23.8134 112.448 23.6107 111.851 23.2054 111.392C22.8107 110.923 22.2774 110.688 21.6054 110.688C20.9334 110.688 20.4 110.923 20.0054 111.392C19.6214 111.851 19.4294 112.448 19.4294 113.184V113.232H23.8134ZM30.1265 118.16C29.3798 118.16 28.7505 118.043 28.2385 117.808C27.7372 117.563 27.3585 117.285 27.1025 116.976C26.8572 116.667 26.7345 116.411 26.7345 116.208C26.7345 116.101 26.7718 116.021 26.8465 115.968C26.9318 115.904 27.0172 115.872 27.1025 115.872H27.8225C27.9292 115.872 28.0252 115.925 28.1105 116.032C28.3665 116.331 28.6438 116.565 28.9425 116.736C29.2412 116.907 29.6412 116.992 30.1425 116.992C30.6972 116.992 31.1452 116.885 31.4865 116.672C31.8385 116.448 32.0145 116.144 32.0145 115.76C32.0145 115.504 31.9398 115.296 31.7905 115.136C31.6518 114.965 31.4065 114.821 31.0545 114.704C30.7132 114.576 30.2012 114.437 29.5185 114.288C28.5905 114.085 27.9292 113.792 27.5345 113.408C27.1505 113.024 26.9585 112.528 26.9585 111.92C26.9585 111.515 27.0758 111.131 27.3105 110.768C27.5558 110.395 27.9078 110.096 28.3665 109.872C28.8358 109.637 29.3958 109.52 30.0465 109.52C30.7292 109.52 31.3105 109.632 31.7905 109.856C32.2705 110.08 32.6278 110.347 32.8625 110.656C33.1078 110.955 33.2305 111.205 33.2305 111.408C33.2305 111.504 33.1932 111.584 33.1185 111.648C33.0545 111.712 32.9745 111.744 32.8785 111.744H32.2065C32.0785 111.744 31.9718 111.691 31.8865 111.584C31.7158 111.381 31.5665 111.227 31.4385 111.12C31.3212 111.003 31.1452 110.901 30.9105 110.816C30.6865 110.731 30.3985 110.688 30.0465 110.688C29.5345 110.688 29.1398 110.8 28.8625 111.024C28.5852 111.237 28.4465 111.52 28.4465 111.872C28.4465 112.096 28.5052 112.288 28.6225 112.448C28.7398 112.597 28.9638 112.736 29.2945 112.864C29.6358 112.992 30.1265 113.125 30.7665 113.264C31.7798 113.477 32.4945 113.787 32.9105 114.192C33.3372 114.587 33.5505 115.093 33.5505 115.712C33.5505 116.171 33.4172 116.587 33.1505 116.96C32.8838 117.333 32.4892 117.627 31.9665 117.84C31.4545 118.053 30.8412 118.16 30.1265 118.16ZM41.6446 118.16C41.122 118.16 40.6366 118.053 40.1886 117.84C39.7406 117.627 39.3833 117.339 39.1166 116.976C38.8606 116.603 38.7326 116.192 38.7326 115.744C38.7326 115.04 39.0206 114.464 39.5966 114.016C40.1833 113.557 40.9726 113.259 41.9646 113.12L44.3486 112.784V112.32C44.3486 111.232 43.7246 110.688 42.4766 110.688C42.0073 110.688 41.6233 110.789 41.3246 110.992C41.026 111.184 40.802 111.413 40.6526 111.68C40.6206 111.776 40.578 111.845 40.5246 111.888C40.482 111.931 40.418 111.952 40.3326 111.952H39.6446C39.5486 111.952 39.4633 111.92 39.3886 111.856C39.3246 111.781 39.2926 111.696 39.2926 111.6C39.3033 111.344 39.4206 111.056 39.6446 110.736C39.8793 110.405 40.2366 110.123 40.7166 109.888C41.1966 109.643 41.7886 109.52 42.4926 109.52C43.6873 109.52 44.546 109.803 45.0686 110.368C45.5913 110.923 45.8526 111.616 45.8526 112.448V117.632C45.8526 117.739 45.8153 117.829 45.7406 117.904C45.6766 117.968 45.5913 118 45.4846 118H44.7486C44.642 118 44.5513 117.968 44.4766 117.904C44.4126 117.829 44.3806 117.739 44.3806 117.632V116.944C44.146 117.285 43.8046 117.573 43.3566 117.808C42.9086 118.043 42.338 118.16 41.6446 118.16ZM41.9806 116.96C42.674 116.96 43.2393 116.736 43.6766 116.288C44.1246 115.829 44.3486 115.173 44.3486 114.32V113.872L42.4926 114.144C41.7353 114.251 41.1646 114.432 40.7806 114.688C40.3966 114.933 40.2046 115.248 40.2046 115.632C40.2046 116.059 40.3806 116.389 40.7326 116.624C41.0846 116.848 41.5006 116.96 41.9806 116.96ZM51.5128 118.16C50.3714 118.16 49.4754 117.84 48.8248 117.2C48.1848 116.549 47.8434 115.643 47.8008 114.48L47.7848 113.84L47.8008 113.2C47.8434 112.037 48.1848 111.136 48.8248 110.496C49.4754 109.845 50.3714 109.52 51.5128 109.52C52.2808 109.52 52.9314 109.659 53.4648 109.936C53.9981 110.213 54.3928 110.555 54.6488 110.96C54.9154 111.365 55.0594 111.771 55.0808 112.176C55.0914 112.283 55.0594 112.368 54.9848 112.432C54.9101 112.496 54.8194 112.528 54.7128 112.528H53.9448C53.8381 112.528 53.7581 112.507 53.7048 112.464C53.6514 112.421 53.5981 112.336 53.5448 112.208C53.3634 111.696 53.1074 111.333 52.7768 111.12C52.4461 110.896 52.0301 110.784 51.5288 110.784C50.8674 110.784 50.3394 110.992 49.9448 111.408C49.5608 111.813 49.3528 112.437 49.3207 113.28L49.3048 113.856L49.3207 114.4C49.3528 115.253 49.5608 115.883 49.9448 116.288C50.3288 116.693 50.8568 116.896 51.5288 116.896C52.0301 116.896 52.4461 116.789 52.7768 116.576C53.1074 116.352 53.3634 115.984 53.5448 115.472C53.5981 115.344 53.6514 115.259 53.7048 115.216C53.7581 115.163 53.8381 115.136 53.9448 115.136H54.7128C54.8194 115.136 54.9101 115.173 54.9848 115.248C55.0594 115.312 55.0914 115.397 55.0808 115.504C55.0594 115.899 54.9154 116.304 54.6488 116.72C54.3928 117.125 53.9981 117.467 53.4648 117.744C52.9421 118.021 52.2914 118.16 51.5128 118.16ZM60.3409 118.16C59.1995 118.16 58.3035 117.84 57.6529 117.2C57.0129 116.549 56.6715 115.643 56.6289 114.48L56.6129 113.84L56.6289 113.2C56.6715 112.037 57.0129 111.136 57.6529 110.496C58.3035 109.845 59.1995 109.52 60.3409 109.52C61.1089 109.52 61.7595 109.659 62.2929 109.936C62.8262 110.213 63.2209 110.555 63.4769 110.96C63.7435 111.365 63.8875 111.771 63.9089 112.176C63.9195 112.283 63.8875 112.368 63.8129 112.432C63.7382 112.496 63.6475 112.528 63.5409 112.528H62.7729C62.6662 112.528 62.5862 112.507 62.5329 112.464C62.4795 112.421 62.4262 112.336 62.3729 112.208C62.1915 111.696 61.9355 111.333 61.6049 111.12C61.2742 110.896 60.8582 110.784 60.3569 110.784C59.6955 110.784 59.1675 110.992 58.7729 111.408C58.3889 111.813 58.1809 112.437 58.1489 113.28L58.1329 113.856L58.1489 114.4C58.1809 115.253 58.3889 115.883 58.7729 116.288C59.1569 116.693 59.6849 116.896 60.3569 116.896C60.8582 116.896 61.2742 116.789 61.6049 116.576C61.9355 116.352 62.1915 115.984 62.3729 115.472C62.4262 115.344 62.4795 115.259 62.5329 115.216C62.5862 115.163 62.6662 115.136 62.7729 115.136H63.5409C63.6475 115.136 63.7382 115.173 63.8129 115.248C63.8875 115.312 63.9195 115.397 63.9089 115.504C63.8875 115.899 63.7435 116.304 63.4769 116.72C63.2209 117.125 62.8262 117.467 62.2929 117.744C61.7702 118.021 61.1195 118.16 60.3409 118.16ZM69.137 118.16C68.0383 118.16 67.1583 117.824 66.497 117.152C65.8463 116.469 65.489 115.541 65.425 114.368L65.409 113.824L65.425 113.296C65.4997 112.144 65.8623 111.227 66.513 110.544C67.1743 109.861 68.0437 109.52 69.121 109.52C70.305 109.52 71.2223 109.899 71.873 110.656C72.5237 111.403 72.849 112.416 72.849 113.696V113.968C72.849 114.075 72.8117 114.165 72.737 114.24C72.673 114.304 72.5877 114.336 72.481 114.336H66.945V114.48C66.977 115.173 67.185 115.765 67.569 116.256C67.9637 116.736 68.481 116.976 69.121 116.976C69.6117 116.976 70.0117 116.88 70.321 116.688C70.641 116.485 70.8757 116.277 71.025 116.064C71.121 115.936 71.1903 115.861 71.233 115.84C71.2863 115.808 71.377 115.792 71.505 115.792H72.289C72.385 115.792 72.465 115.819 72.529 115.872C72.593 115.925 72.625 116 72.625 116.096C72.625 116.331 72.4757 116.613 72.177 116.944C71.889 117.275 71.4783 117.563 70.945 117.808C70.4223 118.043 69.8197 118.16 69.137 118.16ZM71.329 113.232V113.184C71.329 112.448 71.1263 111.851 70.721 111.392C70.3263 110.923 69.793 110.688 69.121 110.688C68.449 110.688 67.9157 110.923 67.521 111.392C67.137 111.851 66.945 112.448 66.945 113.184V113.232H71.329ZM75.1461 121.04C75.0395 121.04 74.9488 121.003 74.8741 120.928C74.8101 120.864 74.7781 120.779 74.7781 120.672V110.048C74.7781 109.941 74.8101 109.856 74.8741 109.792C74.9488 109.717 75.0395 109.68 75.1461 109.68H75.8821C75.9888 109.68 76.0741 109.717 76.1381 109.792C76.2128 109.856 76.2501 109.941 76.2501 110.048V110.752C76.8475 109.931 77.7221 109.52 78.8741 109.52C79.9941 109.52 80.8315 109.872 81.3861 110.576C81.9515 111.28 82.2555 112.187 82.2981 113.296C82.3088 113.413 82.3141 113.595 82.3141 113.84C82.3141 114.085 82.3088 114.267 82.2981 114.384C82.2555 115.483 81.9515 116.389 81.3861 117.104C80.8208 117.808 79.9835 118.16 78.8741 118.16C77.7648 118.16 76.9008 117.76 76.2821 116.96V120.672C76.2821 120.779 76.2501 120.864 76.1861 120.928C76.1221 121.003 76.0368 121.04 75.9301 121.04H75.1461ZM78.5381 116.864C79.2955 116.864 79.8448 116.629 80.1861 116.16C80.5381 115.691 80.7301 115.072 80.7621 114.304C80.7728 114.197 80.7781 114.043 80.7781 113.84C80.7781 111.824 80.0315 110.816 78.5381 110.816C77.8021 110.816 77.2475 111.061 76.8741 111.552C76.5115 112.032 76.3141 112.608 76.2821 113.28L76.2661 113.888L76.2821 114.512C76.3035 115.141 76.5061 115.691 76.8901 116.16C77.2741 116.629 77.8235 116.864 78.5381 116.864ZM87.4476 118C85.7623 118 84.9196 117.061 84.9196 115.184V110.96H83.6716C83.565 110.96 83.4743 110.928 83.3996 110.864C83.3356 110.789 83.3036 110.699 83.3036 110.592V110.048C83.3036 109.941 83.3356 109.856 83.3996 109.792C83.4743 109.717 83.565 109.68 83.6716 109.68H84.9196V107.008C84.9196 106.901 84.9516 106.816 85.0156 106.752C85.0903 106.677 85.181 106.64 85.2876 106.64H86.0396C86.1463 106.64 86.2316 106.677 86.2956 106.752C86.3703 106.816 86.4076 106.901 86.4076 107.008V109.68H88.3916C88.4983 109.68 88.5836 109.717 88.6476 109.792C88.7223 109.856 88.7596 109.941 88.7596 110.048V110.592C88.7596 110.699 88.7223 110.789 88.6476 110.864C88.5836 110.928 88.4983 110.96 88.3916 110.96H86.4076V115.072C86.4076 115.605 86.4983 116.011 86.6796 116.288C86.861 116.555 87.1596 116.688 87.5756 116.688H88.5516C88.6583 116.688 88.7436 116.725 88.8076 116.8C88.8823 116.864 88.9196 116.949 88.9196 117.056V117.632C88.9196 117.739 88.8823 117.829 88.8076 117.904C88.7436 117.968 88.6583 118 88.5516 118H87.4476ZM93.7776 118.16C92.679 118.16 91.799 117.824 91.1376 117.152C90.487 116.469 90.1296 115.541 90.0656 114.368L90.0496 113.824L90.0656 113.296C90.1403 112.144 90.503 111.227 91.1536 110.544C91.815 109.861 92.6843 109.52 93.7616 109.52C94.9456 109.52 95.863 109.899 96.5136 110.656C97.1643 111.403 97.4896 112.416 97.4896 113.696V113.968C97.4896 114.075 97.4523 114.165 97.3776 114.24C97.3136 114.304 97.2283 114.336 97.1216 114.336H91.5856V114.48C91.6176 115.173 91.8256 115.765 92.2096 116.256C92.6043 116.736 93.1216 116.976 93.7616 116.976C94.2523 116.976 94.6523 116.88 94.9616 116.688C95.2816 116.485 95.5163 116.277 95.6656 116.064C95.7616 115.936 95.831 115.861 95.8736 115.84C95.927 115.808 96.0176 115.792 96.1456 115.792H96.9296C97.0256 115.792 97.1056 115.819 97.1696 115.872C97.2336 115.925 97.2656 116 97.2656 116.096C97.2656 116.331 97.1163 116.613 96.8176 116.944C96.5296 117.275 96.119 117.563 95.5856 117.808C95.063 118.043 94.4603 118.16 93.7776 118.16ZM95.9696 113.232V113.184C95.9696 112.448 95.767 111.851 95.3616 111.392C94.967 110.923 94.4336 110.688 93.7616 110.688C93.0896 110.688 92.5563 110.923 92.1616 111.392C91.7776 111.851 91.5856 112.448 91.5856 113.184V113.232H95.9696ZM102.443 118.16C101.333 118.16 100.496 117.797 99.9308 117.072C99.3654 116.347 99.0668 115.429 99.0348 114.32L99.0188 113.84L99.0348 113.36C99.0668 112.261 99.3654 111.349 99.9308 110.624C100.496 109.888 101.333 109.52 102.443 109.52C103.541 109.52 104.405 109.909 105.035 110.688V107.008C105.035 106.901 105.067 106.816 105.131 106.752C105.205 106.677 105.296 106.64 105.403 106.64H106.171C106.277 106.64 106.363 106.677 106.427 106.752C106.501 106.816 106.539 106.901 106.539 107.008V117.632C106.539 117.739 106.501 117.829 106.427 117.904C106.363 117.968 106.277 118 106.171 118H105.451C105.344 118 105.253 117.968 105.179 117.904C105.115 117.829 105.083 117.739 105.083 117.632V116.96C104.464 117.76 103.584 118.16 102.443 118.16ZM102.779 116.864C103.515 116.864 104.064 116.624 104.427 116.144C104.8 115.653 105.003 115.072 105.035 114.4C105.045 114.283 105.051 114.08 105.051 113.792C105.051 113.493 105.045 113.285 105.035 113.168C105.013 112.539 104.811 111.989 104.427 111.52C104.043 111.051 103.493 110.816 102.779 110.816C102.021 110.816 101.467 111.051 101.115 111.52C100.773 111.989 100.587 112.608 100.555 113.376L100.539 113.84C100.539 115.856 101.285 116.864 102.779 116.864ZM109.206 112.4C109.1 112.4 109.009 112.368 108.934 112.304C108.87 112.229 108.838 112.139 108.838 112.032V110.912C108.838 110.805 108.87 110.72 108.934 110.656C109.009 110.581 109.1 110.544 109.206 110.544H110.358C110.465 110.544 110.55 110.581 110.614 110.656C110.689 110.72 110.726 110.805 110.726 110.912V112.032C110.726 112.139 110.689 112.229 110.614 112.304C110.55 112.368 110.465 112.4 110.358 112.4H109.206ZM109.206 118C109.1 118 109.009 117.968 108.934 117.904C108.87 117.829 108.838 117.739 108.838 117.632V116.512C108.838 116.405 108.87 116.32 108.934 116.256C109.009 116.181 109.1 116.144 109.206 116.144H110.358C110.465 116.144 110.55 116.181 110.614 116.256C110.689 116.32 110.726 116.405 110.726 116.512V117.632C110.726 117.739 110.689 117.829 110.614 117.904C110.55 117.968 110.465 118 110.358 118H109.206ZM120.47 118.16C119.307 118.16 118.342 117.872 117.574 117.296C116.806 116.72 116.401 115.877 116.358 114.768C116.358 114.672 116.39 114.592 116.454 114.528C116.518 114.453 116.603 114.416 116.71 114.416H117.574C117.798 114.416 117.937 114.539 117.99 114.784C118.054 115.467 118.315 115.973 118.774 116.304C119.233 116.635 119.809 116.8 120.502 116.8C121.302 116.8 121.915 116.539 122.342 116.016C122.779 115.483 122.998 114.768 122.998 113.872V108.192H117.318C117.211 108.192 117.121 108.16 117.046 108.096C116.982 108.021 116.95 107.931 116.95 107.824V107.168C116.95 107.061 116.982 106.976 117.046 106.912C117.121 106.837 117.211 106.8 117.318 106.8H124.214C124.331 106.8 124.422 106.837 124.486 106.912C124.561 106.976 124.598 107.067 124.598 107.184V113.904C124.598 115.205 124.23 116.24 123.494 117.008C122.769 117.776 121.761 118.16 120.47 118.16ZM127.651 118C127.544 118 127.453 117.968 127.379 117.904C127.315 117.829 127.283 117.739 127.283 117.632V107.184C127.283 107.067 127.315 106.976 127.379 106.912C127.453 106.837 127.544 106.8 127.651 106.8H131.715C132.92 106.8 133.869 107.093 134.563 107.68C135.256 108.267 135.603 109.115 135.603 110.224C135.603 111.333 135.256 112.181 134.563 112.768C133.88 113.344 132.931 113.632 131.715 113.632H128.883V117.632C128.883 117.739 128.845 117.829 128.771 117.904C128.696 117.968 128.605 118 128.499 118H127.651ZM131.635 112.288C132.413 112.288 133 112.112 133.395 111.76C133.8 111.408 134.003 110.896 134.003 110.224C134.003 109.552 133.805 109.04 133.411 108.688C133.016 108.325 132.424 108.144 131.635 108.144H128.867V112.288H131.635ZM141.628 118.16C140.231 118.16 139.143 117.781 138.364 117.024C137.596 116.256 137.186 115.211 137.132 113.888C137.122 113.568 137.116 113.067 137.116 112.384C137.116 111.691 137.122 111.189 137.132 110.88C137.186 109.568 137.602 108.533 138.38 107.776C139.159 107.019 140.242 106.64 141.628 106.64C142.567 106.64 143.362 106.811 144.012 107.152C144.674 107.483 145.17 107.888 145.5 108.368C145.831 108.848 146.007 109.296 146.028 109.712V109.744C146.028 109.829 145.996 109.899 145.932 109.952C145.868 110.005 145.788 110.032 145.692 110.032H144.748C144.642 110.032 144.562 110.016 144.508 109.984C144.466 109.941 144.423 109.861 144.38 109.744C144.22 109.264 143.911 108.853 143.452 108.512C143.004 108.171 142.396 108 141.628 108C140.743 108 140.05 108.24 139.548 108.72C139.047 109.2 138.775 109.947 138.732 110.96C138.722 111.269 138.716 111.744 138.716 112.384C138.716 113.013 138.722 113.488 138.732 113.808C138.775 114.832 139.047 115.589 139.548 116.08C140.05 116.56 140.743 116.8 141.628 116.8C142.524 116.8 143.239 116.555 143.772 116.064C144.306 115.573 144.572 114.837 144.572 113.856V113.184H142.172C142.066 113.184 141.975 113.152 141.9 113.088C141.836 113.013 141.804 112.917 141.804 112.8V112.288C141.804 112.181 141.836 112.091 141.9 112.016C141.975 111.941 142.066 111.904 142.172 111.904H145.788C145.895 111.904 145.98 111.941 146.044 112.016C146.119 112.08 146.156 112.171 146.156 112.288V113.824C146.156 114.699 145.975 115.461 145.612 116.112C145.25 116.763 144.727 117.269 144.044 117.632C143.362 117.984 142.556 118.16 141.628 118.16ZM147.885 119.2C147.799 119.2 147.73 119.168 147.677 119.104C147.634 119.04 147.618 118.96 147.629 118.864L147.997 116.576C148.039 116.267 148.189 116.112 148.445 116.112H149.517C149.591 116.112 149.65 116.139 149.693 116.192C149.746 116.245 149.773 116.309 149.773 116.384C149.773 116.437 149.757 116.523 149.725 116.64L148.877 118.832C148.823 118.96 148.765 119.051 148.701 119.104C148.637 119.168 148.541 119.2 148.413 119.2H147.885ZM156.479 118C156.372 118 156.281 117.968 156.207 117.904C156.143 117.829 156.111 117.739 156.111 117.632V107.184C156.111 107.067 156.143 106.976 156.207 106.912C156.281 106.837 156.372 106.8 156.479 106.8H160.543C161.748 106.8 162.697 107.093 163.391 107.68C164.084 108.267 164.431 109.115 164.431 110.224C164.431 111.333 164.084 112.181 163.391 112.768C162.708 113.344 161.759 113.632 160.543 113.632H157.711V117.632C157.711 117.739 157.673 117.829 157.599 117.904C157.524 117.968 157.433 118 157.327 118H156.479ZM160.463 112.288C161.241 112.288 161.828 112.112 162.223 111.76C162.628 111.408 162.831 110.896 162.831 110.224C162.831 109.552 162.633 109.04 162.239 108.688C161.844 108.325 161.252 108.144 160.463 108.144H157.695V112.288H160.463ZM166.744 118C166.638 118 166.547 117.968 166.472 117.904C166.408 117.829 166.376 117.739 166.376 117.632V107.184C166.376 107.067 166.408 106.976 166.472 106.912C166.547 106.837 166.638 106.8 166.744 106.8H167.48C167.672 106.8 167.806 106.875 167.88 107.024L173.192 115.184V107.184C173.192 107.067 173.224 106.976 173.288 106.912C173.363 106.837 173.454 106.8 173.56 106.8H174.328C174.446 106.8 174.536 106.837 174.6 106.912C174.675 106.976 174.712 107.067 174.712 107.184V117.616C174.712 117.723 174.675 117.813 174.6 117.888C174.536 117.963 174.451 118 174.344 118H173.576C173.416 118 173.288 117.925 173.192 117.776L167.896 109.696V117.632C167.896 117.739 167.859 117.829 167.784 117.904C167.71 117.968 167.619 118 167.512 118H166.744ZM181.581 118.16C180.184 118.16 179.096 117.781 178.317 117.024C177.549 116.256 177.139 115.211 177.085 113.888C177.075 113.568 177.069 113.067 177.069 112.384C177.069 111.691 177.075 111.189 177.085 110.88C177.139 109.568 177.555 108.533 178.333 107.776C179.112 107.019 180.195 106.64 181.581 106.64C182.52 106.64 183.315 106.811 183.965 107.152C184.627 107.483 185.123 107.888 185.453 108.368C185.784 108.848 185.96 109.296 185.981 109.712V109.744C185.981 109.829 185.949 109.899 185.885 109.952C185.821 110.005 185.741 110.032 185.645 110.032H184.701C184.595 110.032 184.515 110.016 184.461 109.984C184.419 109.941 184.376 109.861 184.333 109.744C184.173 109.264 183.864 108.853 183.405 108.512C182.957 108.171 182.349 108 181.581 108C180.696 108 180.003 108.24 179.501 108.72C179 109.2 178.728 109.947 178.685 110.96C178.675 111.269 178.669 111.744 178.669 112.384C178.669 113.013 178.675 113.488 178.685 113.808C178.728 114.832 179 115.589 179.501 116.08C180.003 116.56 180.696 116.8 181.581 116.8C182.477 116.8 183.192 116.555 183.725 116.064C184.259 115.573 184.525 114.837 184.525 113.856V113.184H182.125C182.019 113.184 181.928 113.152 181.853 113.088C181.789 113.013 181.757 112.917 181.757 112.8V112.288C181.757 112.181 181.789 112.091 181.853 112.016C181.928 111.941 182.019 111.904 182.125 111.904H185.741C185.848 111.904 185.933 111.941 185.997 112.016C186.072 112.08 186.109 112.171 186.109 112.288V113.824C186.109 114.699 185.928 115.461 185.565 116.112C185.203 116.763 184.68 117.269 183.997 117.632C183.315 117.984 182.509 118.16 181.581 118.16ZM187.838 119.2C187.752 119.2 187.683 119.168 187.63 119.104C187.587 119.04 187.571 118.96 187.582 118.864L187.95 116.576C187.992 116.267 188.142 116.112 188.398 116.112H189.47C189.544 116.112 189.603 116.139 189.646 116.192C189.699 116.245 189.726 116.309 189.726 116.384C189.726 116.437 189.71 116.523 189.678 116.64L188.83 118.832C188.776 118.96 188.718 119.051 188.654 119.104C188.59 119.168 188.494 119.2 188.366 119.2H187.838ZM200.144 118.16C198.747 118.16 197.659 117.781 196.88 117.024C196.112 116.256 195.701 115.211 195.648 113.888C195.637 113.568 195.632 113.067 195.632 112.384C195.632 111.691 195.637 111.189 195.648 110.88C195.701 109.568 196.117 108.533 196.896 107.776C197.675 107.019 198.757 106.64 200.144 106.64C201.083 106.64 201.877 106.811 202.528 107.152C203.189 107.483 203.685 107.888 204.016 108.368C204.347 108.848 204.523 109.296 204.544 109.712V109.744C204.544 109.829 204.512 109.899 204.448 109.952C204.384 110.005 204.304 110.032 204.208 110.032H203.264C203.157 110.032 203.077 110.016 203.024 109.984C202.981 109.941 202.939 109.861 202.896 109.744C202.736 109.264 202.427 108.853 201.968 108.512C201.52 108.171 200.912 108 200.144 108C199.259 108 198.565 108.24 198.064 108.72C197.563 109.2 197.291 109.947 197.248 110.96C197.237 111.269 197.232 111.744 197.232 112.384C197.232 113.013 197.237 113.488 197.248 113.808C197.291 114.832 197.563 115.589 198.064 116.08C198.565 116.56 199.259 116.8 200.144 116.8C201.04 116.8 201.755 116.555 202.288 116.064C202.821 115.573 203.088 114.837 203.088 113.856V113.184H200.688C200.581 113.184 200.491 113.152 200.416 113.088C200.352 113.013 200.32 112.917 200.32 112.8V112.288C200.32 112.181 200.352 112.091 200.416 112.016C200.491 111.941 200.581 111.904 200.688 111.904H204.304C204.411 111.904 204.496 111.941 204.56 112.016C204.635 112.08 204.672 112.171 204.672 112.288V113.824C204.672 114.699 204.491 115.461 204.128 116.112C203.765 116.763 203.243 117.269 202.56 117.632C201.877 117.984 201.072 118.16 200.144 118.16ZM207.323 118C207.216 118 207.125 117.968 207.051 117.904C206.987 117.829 206.955 117.739 206.955 117.632V107.168C206.955 107.061 206.987 106.976 207.051 106.912C207.125 106.837 207.216 106.8 207.323 106.8H208.171C208.277 106.8 208.363 106.837 208.427 106.912C208.501 106.976 208.539 107.061 208.539 107.168V117.632C208.539 117.739 208.501 117.829 208.427 117.904C208.363 117.968 208.277 118 208.171 118H207.323ZM211.698 118C211.591 118 211.5 117.968 211.426 117.904C211.362 117.829 211.33 117.739 211.33 117.632V107.184C211.33 107.067 211.362 106.976 211.426 106.912C211.5 106.837 211.591 106.8 211.698 106.8H218.226C218.343 106.8 218.434 106.837 218.498 106.912C218.572 106.976 218.61 107.067 218.61 107.184V107.824C218.61 107.931 218.572 108.021 218.498 108.096C218.434 108.16 218.343 108.192 218.226 108.192H212.882V111.92H217.906C218.023 111.92 218.114 111.957 218.178 112.032C218.252 112.096 218.29 112.187 218.29 112.304V112.944C218.29 113.051 218.252 113.141 218.178 113.216C218.103 113.28 218.012 113.312 217.906 113.312H212.882V117.632C212.882 117.739 212.844 117.829 212.77 117.904C212.695 117.968 212.604 118 212.498 118H211.698ZM227.545 118.16C226.82 118.16 226.174 118.027 225.609 117.76C225.054 117.493 224.622 117.12 224.313 116.64C224.004 116.16 223.849 115.616 223.849 115.008C223.849 114.336 224.046 113.765 224.441 113.296C224.836 112.816 225.39 112.368 226.105 111.952C225.604 111.419 225.246 110.955 225.033 110.56C224.83 110.155 224.729 109.728 224.729 109.28C224.729 108.8 224.852 108.363 225.097 107.968C225.342 107.563 225.694 107.243 226.153 107.008C226.612 106.763 227.134 106.64 227.721 106.64C228.297 106.64 228.809 106.757 229.257 106.992C229.705 107.216 230.052 107.531 230.297 107.936C230.542 108.331 230.665 108.773 230.665 109.264C230.665 109.915 230.457 110.459 230.041 110.896C229.625 111.333 229.022 111.776 228.233 112.224L230.953 114.896C231.38 114.181 231.668 113.371 231.817 112.464C231.828 112.368 231.86 112.293 231.913 112.24C231.977 112.176 232.057 112.144 232.153 112.144H232.857C232.953 112.144 233.033 112.176 233.097 112.24C233.161 112.304 233.193 112.384 233.193 112.48C233.182 112.949 233.06 113.488 232.825 114.096C232.601 114.693 232.292 115.269 231.897 115.824L233.529 117.456C233.625 117.552 233.673 117.632 233.673 117.696C233.673 117.899 233.566 118 233.353 118H232.457C232.254 118 232.11 117.947 232.025 117.84L230.969 116.8C230.041 117.707 228.9 118.16 227.545 118.16ZM227.353 111.296C227.993 110.944 228.473 110.624 228.793 110.336C229.113 110.048 229.273 109.696 229.273 109.28C229.273 108.864 229.124 108.528 228.825 108.272C228.526 108.005 228.158 107.872 227.721 107.872C227.294 107.872 226.926 108.005 226.617 108.272C226.318 108.528 226.169 108.869 226.169 109.296C226.169 109.584 226.249 109.872 226.409 110.16C226.58 110.437 226.894 110.816 227.353 111.296ZM227.545 116.88C227.982 116.88 228.414 116.789 228.841 116.608C229.268 116.427 229.657 116.16 230.009 115.808L227.017 112.896C226.473 113.205 226.052 113.52 225.753 113.84C225.465 114.16 225.321 114.539 225.321 114.976C225.321 115.563 225.54 116.027 225.977 116.368C226.414 116.709 226.937 116.88 227.545 116.88ZM242.976 118.16C242.091 118.16 241.323 118.021 240.672 117.744C240.032 117.467 239.542 117.104 239.2 116.656C238.859 116.197 238.678 115.707 238.656 115.184C238.656 115.099 238.688 115.024 238.752 114.96C238.827 114.885 238.912 114.848 239.008 114.848H239.824C240.027 114.848 240.166 114.955 240.24 115.168C240.336 115.616 240.608 116 241.056 116.32C241.515 116.64 242.155 116.8 242.976 116.8C243.862 116.8 244.528 116.645 244.976 116.336C245.424 116.016 245.648 115.573 245.648 115.008C245.648 114.645 245.536 114.352 245.312 114.128C245.099 113.904 244.779 113.707 244.352 113.536C243.926 113.365 243.286 113.152 242.432 112.896C241.6 112.661 240.939 112.411 240.448 112.144C239.958 111.877 239.59 111.547 239.344 111.152C239.099 110.757 238.976 110.261 238.976 109.664C238.976 109.088 239.131 108.571 239.44 108.112C239.76 107.653 240.214 107.296 240.8 107.04C241.387 106.773 242.086 106.64 242.896 106.64C243.728 106.64 244.443 106.789 245.04 107.088C245.638 107.376 246.091 107.744 246.4 108.192C246.71 108.64 246.875 109.088 246.896 109.536C246.896 109.621 246.864 109.696 246.8 109.76C246.747 109.824 246.667 109.856 246.56 109.856H245.712C245.488 109.856 245.35 109.755 245.296 109.552C245.232 109.104 244.982 108.736 244.544 108.448C244.107 108.149 243.558 108 242.896 108C242.171 108 241.6 108.139 241.184 108.416C240.768 108.693 240.56 109.104 240.56 109.648C240.56 110.011 240.656 110.309 240.848 110.544C241.051 110.779 241.355 110.987 241.76 111.168C242.166 111.339 242.758 111.536 243.536 111.76C244.443 112.005 245.158 112.261 245.68 112.528C246.203 112.784 246.592 113.109 246.848 113.504C247.104 113.888 247.232 114.379 247.232 114.976C247.232 115.968 246.848 116.747 246.08 117.312C245.312 117.877 244.278 118.16 242.976 118.16ZM252.283 118C251.995 118 251.797 117.861 251.691 117.584L248.123 107.296L248.09 107.12C248.09 107.035 248.123 106.96 248.187 106.896C248.251 106.832 248.325 106.8 248.411 106.8H249.243C249.445 106.8 249.589 106.896 249.674 107.088L252.795 116.16L255.931 107.088C255.952 107.024 256 106.96 256.075 106.896C256.149 106.832 256.24 106.8 256.347 106.8H257.179C257.264 106.8 257.339 106.832 257.403 106.896C257.477 106.96 257.515 107.035 257.515 107.12L257.483 107.296L253.899 117.584C253.792 117.861 253.6 118 253.323 118H252.283ZM263.206 118.16C261.809 118.16 260.721 117.781 259.942 117.024C259.174 116.256 258.764 115.211 258.71 113.888C258.7 113.568 258.694 113.067 258.694 112.384C258.694 111.691 258.7 111.189 258.71 110.88C258.764 109.568 259.18 108.533 259.958 107.776C260.737 107.019 261.82 106.64 263.206 106.64C264.145 106.64 264.94 106.811 265.59 107.152C266.252 107.483 266.748 107.888 267.078 108.368C267.409 108.848 267.585 109.296 267.606 109.712V109.744C267.606 109.829 267.574 109.899 267.51 109.952C267.446 110.005 267.366 110.032 267.27 110.032H266.326C266.22 110.032 266.14 110.016 266.086 109.984C266.044 109.941 266.001 109.861 265.958 109.744C265.798 109.264 265.489 108.853 265.03 108.512C264.582 108.171 263.974 108 263.206 108C262.321 108 261.628 108.24 261.126 108.72C260.625 109.2 260.353 109.947 260.31 110.96C260.3 111.269 260.294 111.744 260.294 112.384C260.294 113.013 260.3 113.488 260.31 113.808C260.353 114.832 260.625 115.589 261.126 116.08C261.628 116.56 262.321 116.8 263.206 116.8C264.102 116.8 264.817 116.555 265.35 116.064C265.884 115.573 266.15 114.837 266.15 113.856V113.184H263.75C263.644 113.184 263.553 113.152 263.478 113.088C263.414 113.013 263.382 112.917 263.382 112.8V112.288C263.382 112.181 263.414 112.091 263.478 112.016C263.553 111.941 263.644 111.904 263.75 111.904H267.366C267.473 111.904 267.558 111.941 267.622 112.016C267.697 112.08 267.734 112.171 267.734 112.288V113.824C267.734 114.699 267.553 115.461 267.19 116.112C266.828 116.763 266.305 117.269 265.622 117.632C264.94 117.984 264.134 118.16 263.206 118.16Z" fill="#A0A4AC"/>
<path d="M86.584 131.312C86.7547 130.971 86.9893 130.8 87.288 130.8H87.896C88.0133 130.8 88.1147 130.843 88.2 130.928C88.2853 131.013 88.328 131.115 88.328 131.232V141.568C88.328 141.685 88.2853 141.787 88.2 141.872C88.1147 141.957 88.0133 142 87.896 142H87.24C87.1227 142 87.0213 141.957 86.936 141.872C86.8507 141.787 86.808 141.685 86.808 141.568V133.984L84.312 138.8C84.2267 138.971 84.1307 139.099 84.024 139.184C83.928 139.269 83.8053 139.312 83.656 139.312H83.048C82.8987 139.312 82.7707 139.269 82.664 139.184C82.568 139.099 82.4773 138.971 82.392 138.8L79.896 133.984V141.568C79.896 141.685 79.8533 141.787 79.768 141.872C79.6827 141.957 79.5813 142 79.464 142H78.808C78.6907 142 78.5893 141.957 78.504 141.872C78.4187 141.787 78.376 141.685 78.376 141.568V131.232C78.376 131.115 78.4187 131.013 78.504 130.928C78.5893 130.843 78.6907 130.8 78.808 130.8H79.416C79.7147 130.8 79.9493 130.971 80.12 131.312L83.352 137.568L86.584 131.312ZM95.8471 136.736V136.528C95.8471 136.005 95.6711 135.605 95.3191 135.328C94.9778 135.04 94.5298 134.896 93.9751 134.896C93.5485 134.896 93.2125 134.971 92.9671 135.12C92.7325 135.259 92.5085 135.472 92.2951 135.76C92.2311 135.845 92.1618 135.904 92.0871 135.936C92.0125 135.968 91.9111 135.984 91.7831 135.984H91.3031C91.1858 135.984 91.0791 135.941 90.9831 135.856C90.8978 135.771 90.8605 135.669 90.8711 135.552C90.9031 135.232 91.0578 134.917 91.3351 134.608C91.6231 134.288 92.0018 134.027 92.4711 133.824C92.9405 133.621 93.4418 133.52 93.9751 133.52C94.9671 133.52 95.7671 133.797 96.3751 134.352C96.9938 134.907 97.3031 135.685 97.3031 136.688V141.568C97.3031 141.685 97.2605 141.787 97.1751 141.872C97.0898 141.957 96.9885 142 96.8711 142H96.2791C96.1618 142 96.0605 141.957 95.9751 141.872C95.8898 141.787 95.8471 141.685 95.8471 141.568V140.912C95.6765 141.296 95.3138 141.6 94.7591 141.824C94.2045 142.048 93.6498 142.16 93.0951 142.16C92.5511 142.16 92.0658 142.064 91.6391 141.872C91.2125 141.669 90.8818 141.397 90.6471 141.056C90.4231 140.715 90.3111 140.331 90.3111 139.904C90.3111 139.104 90.6098 138.48 91.2071 138.032C91.8045 137.573 92.5991 137.264 93.5911 137.104L95.8471 136.736ZM95.8471 138.016L93.9591 138.32C93.2658 138.427 92.7271 138.603 92.3431 138.848C91.9591 139.083 91.7671 139.381 91.7671 139.744C91.7671 140.011 91.8898 140.251 92.1351 140.464C92.3805 140.677 92.7538 140.784 93.2551 140.784C94.0231 140.784 94.6471 140.565 95.1271 140.128C95.6071 139.691 95.8471 139.12 95.8471 138.416V138.016ZM100.534 141.696C100.459 141.781 100.384 141.856 100.31 141.92C100.235 141.973 100.139 142 100.022 142H99.2855C99.1788 142 99.0882 141.963 99.0135 141.888C98.9388 141.813 98.9015 141.728 98.9015 141.632C98.9015 141.547 98.9228 141.472 98.9655 141.408L101.894 137.744L99.1255 134.272C99.0828 134.208 99.0615 134.133 99.0615 134.048C99.0615 133.952 99.0988 133.867 99.1735 133.792C99.2482 133.717 99.3388 133.68 99.4455 133.68H100.214C100.331 133.68 100.427 133.712 100.502 133.776C100.576 133.829 100.651 133.899 100.726 133.984L102.854 136.656L104.966 133.984C105.04 133.899 105.115 133.829 105.19 133.776C105.264 133.712 105.36 133.68 105.478 133.68H106.214C106.32 133.68 106.411 133.717 106.486 133.792C106.56 133.867 106.598 133.952 106.598 134.048C106.598 134.133 106.576 134.208 106.534 134.272L103.75 137.776L106.646 141.408C106.688 141.472 106.71 141.547 106.71 141.632C106.71 141.728 106.672 141.813 106.598 141.888C106.523 141.963 106.432 142 106.326 142H105.558C105.44 142 105.344 141.973 105.27 141.92C105.195 141.856 105.12 141.781 105.046 141.696L102.79 138.864L100.534 141.696ZM109.715 140.064C109.832 140.064 109.934 140.107 110.019 140.192C110.104 140.277 110.147 140.379 110.147 140.496V141.568C110.147 141.685 110.104 141.787 110.019 141.872C109.934 141.957 109.832 142 109.715 142H108.643C108.526 142 108.424 141.957 108.339 141.872C108.254 141.787 108.211 141.685 108.211 141.568V140.496C108.211 140.379 108.254 140.277 108.339 140.192C108.424 140.107 108.526 140.064 108.643 140.064H109.715ZM118.263 138.304C116.705 137.973 115.927 137.179 115.927 135.92C115.927 135.483 116.044 135.083 116.279 134.72C116.513 134.357 116.86 134.069 117.319 133.856C117.788 133.632 118.359 133.52 119.031 133.52C119.692 133.52 120.263 133.616 120.743 133.808C121.223 134 121.585 134.24 121.831 134.528C122.087 134.816 122.215 135.093 122.215 135.36C122.215 135.467 122.172 135.563 122.087 135.648C122.001 135.723 121.9 135.76 121.783 135.76H121.255C121.052 135.76 120.892 135.685 120.775 135.536C120.444 135.109 119.863 134.896 119.031 134.896C118.54 134.896 118.14 134.987 117.831 135.168C117.532 135.349 117.383 135.6 117.383 135.92C117.383 136.187 117.457 136.389 117.607 136.528C117.756 136.667 117.98 136.779 118.279 136.864C118.577 136.949 119.105 137.077 119.863 137.248C120.801 137.451 121.468 137.76 121.863 138.176C122.257 138.592 122.455 139.099 122.455 139.696C122.455 140.133 122.316 140.539 122.039 140.912C121.772 141.285 121.383 141.589 120.871 141.824C120.369 142.048 119.783 142.16 119.111 142.16C118.449 142.16 117.863 142.059 117.351 141.856C116.849 141.643 116.46 141.387 116.183 141.088C115.905 140.789 115.767 140.507 115.767 140.24C115.767 140.133 115.809 140.043 115.895 139.968C115.98 139.883 116.081 139.84 116.199 139.84H116.775C116.871 139.84 116.956 139.851 117.031 139.872C117.105 139.893 117.175 139.952 117.239 140.048C117.591 140.539 118.215 140.784 119.111 140.784C119.612 140.784 120.049 140.683 120.423 140.48C120.807 140.267 120.999 140.005 120.999 139.696C120.999 139.44 120.903 139.237 120.711 139.088C120.529 138.928 120.263 138.8 119.911 138.704C119.559 138.597 119.009 138.464 118.263 138.304ZM125.972 131.984C125.972 132.101 125.93 132.203 125.844 132.288C125.759 132.373 125.658 132.416 125.54 132.416H124.628C124.511 132.416 124.41 132.373 124.324 132.288C124.239 132.203 124.196 132.101 124.196 131.984V131.072C124.196 130.955 124.239 130.853 124.324 130.768C124.41 130.683 124.511 130.64 124.628 130.64H125.54C125.658 130.64 125.759 130.683 125.844 130.768C125.93 130.853 125.972 130.955 125.972 131.072V131.984ZM125.812 141.568C125.812 141.685 125.77 141.787 125.684 141.872C125.599 141.957 125.498 142 125.38 142H124.788C124.671 142 124.57 141.957 124.484 141.872C124.399 141.787 124.356 141.685 124.356 141.568V134.112C124.356 133.995 124.399 133.893 124.484 133.808C124.57 133.723 124.671 133.68 124.788 133.68H125.38C125.498 133.68 125.599 133.723 125.684 133.808C125.77 133.893 125.812 133.995 125.812 134.112V141.568ZM134.168 140.624C134.285 140.624 134.386 140.667 134.472 140.752C134.557 140.837 134.6 140.939 134.6 141.056V141.568C134.6 141.685 134.557 141.787 134.472 141.872C134.386 141.957 134.285 142 134.168 142H128.12C128.002 142 127.901 141.957 127.816 141.872C127.73 141.787 127.688 141.685 127.688 141.568V140.944C127.688 140.816 127.762 140.661 127.912 140.48L132.312 135.056H128.28C128.162 135.056 128.061 135.013 127.976 134.928C127.89 134.843 127.848 134.741 127.848 134.624V134.112C127.848 133.995 127.89 133.893 127.976 133.808C128.061 133.723 128.162 133.68 128.28 133.68H133.848C133.965 133.68 134.066 133.723 134.152 133.808C134.237 133.893 134.28 133.995 134.28 134.112V134.736C134.28 134.843 134.248 134.939 134.184 135.024C134.12 135.109 134.077 135.168 134.056 135.2L129.624 140.624H134.168ZM139.558 133.52C140.699 133.52 141.601 133.883 142.262 134.608C142.923 135.333 143.254 136.32 143.254 137.568V138C143.254 138.117 143.211 138.219 143.126 138.304C143.041 138.389 142.939 138.432 142.822 138.432H137.318V138.528C137.339 139.232 137.553 139.787 137.958 140.192C138.374 140.587 138.907 140.784 139.558 140.784C140.091 140.784 140.502 140.715 140.79 140.576C141.089 140.437 141.355 140.24 141.59 139.984C141.675 139.899 141.75 139.84 141.814 139.808C141.889 139.776 141.985 139.76 142.102 139.76H142.582C142.71 139.76 142.817 139.803 142.902 139.888C142.987 139.973 143.025 140.075 143.014 140.192C142.971 140.48 142.811 140.779 142.534 141.088C142.267 141.387 141.878 141.643 141.366 141.856C140.865 142.059 140.262 142.16 139.558 142.16C138.875 142.16 138.267 142.005 137.734 141.696C137.201 141.376 136.774 140.939 136.454 140.384C136.145 139.829 135.958 139.205 135.894 138.512C135.873 138.192 135.862 137.947 135.862 137.776C135.862 137.605 135.873 137.36 135.894 137.04C135.958 136.379 136.145 135.781 136.454 135.248C136.774 134.715 137.195 134.293 137.718 133.984C138.251 133.675 138.865 133.52 139.558 133.52ZM141.814 137.088V137.04C141.814 136.389 141.606 135.872 141.19 135.488C140.785 135.093 140.241 134.896 139.558 134.896C138.939 134.896 138.411 135.093 137.974 135.488C137.547 135.883 137.329 136.4 137.318 137.04V137.088H141.814ZM153.699 136.112C154.04 135.803 154.285 135.499 154.435 135.2C154.584 134.901 154.659 134.523 154.659 134.064C154.659 133.467 154.488 132.987 154.147 132.624C153.805 132.261 153.288 132.08 152.595 132.08C151.912 132.08 151.4 132.261 151.059 132.624C150.717 132.976 150.472 133.456 150.323 134.064C150.291 134.181 150.237 134.272 150.163 134.336C150.088 134.4 150.003 134.432 149.907 134.432H149.171C149.075 134.432 148.989 134.4 148.915 134.336C148.851 134.261 148.819 134.176 148.819 134.08C148.84 133.536 149 132.997 149.299 132.464C149.608 131.931 150.045 131.493 150.611 131.152C151.176 130.811 151.837 130.64 152.595 130.64C153.352 130.64 153.997 130.795 154.531 131.104C155.075 131.403 155.485 131.813 155.763 132.336C156.04 132.848 156.179 133.424 156.179 134.064C156.179 134.736 156.061 135.312 155.827 135.792C155.603 136.261 155.213 136.741 154.659 137.232L151.091 140.56H155.987C156.104 140.56 156.205 140.603 156.291 140.688C156.376 140.773 156.419 140.875 156.419 140.992V141.568C156.419 141.685 156.376 141.787 156.291 141.872C156.205 141.957 156.104 142 155.987 142H149.091C148.973 142 148.872 141.957 148.787 141.872C148.701 141.787 148.659 141.685 148.659 141.568V140.992C148.659 140.875 148.68 140.779 148.723 140.704C148.776 140.619 148.872 140.512 149.011 140.384L153.699 136.112ZM166.355 137.76C166.334 139.083 165.982 140.149 165.299 140.96C164.627 141.76 163.619 142.16 162.275 142.16C160.931 142.16 159.918 141.76 159.235 140.96C158.563 140.149 158.216 139.083 158.195 137.76L158.179 136.4L158.195 135.056C158.216 133.733 158.563 132.667 159.235 131.856C159.918 131.045 160.931 130.64 162.275 130.64C163.619 130.64 164.627 131.045 165.299 131.856C165.982 132.667 166.334 133.733 166.355 135.056C166.366 135.376 166.371 135.824 166.371 136.4C166.371 136.987 166.366 137.44 166.355 137.76ZM162.275 140.72C163.95 140.72 164.808 139.733 164.851 137.76C164.862 137.44 164.867 136.987 164.867 136.4C164.867 135.824 164.862 135.376 164.851 135.056C164.808 133.072 163.95 132.08 162.275 132.08C160.6 132.08 159.742 133.072 159.699 135.056L159.683 136.4L159.699 137.76C159.742 139.733 160.6 140.72 162.275 140.72ZM176.928 131.312C177.098 130.971 177.333 130.8 177.632 130.8H178.24C178.357 130.8 178.458 130.843 178.544 130.928C178.629 131.013 178.672 131.115 178.672 131.232V141.568C178.672 141.685 178.629 141.787 178.544 141.872C178.458 141.957 178.357 142 178.24 142H177.584C177.466 142 177.365 141.957 177.28 141.872C177.194 141.787 177.152 141.685 177.152 141.568V133.984L174.656 138.8C174.57 138.971 174.474 139.099 174.368 139.184C174.272 139.269 174.149 139.312 174 139.312H173.392C173.242 139.312 173.114 139.269 173.008 139.184C172.912 139.099 172.821 138.971 172.736 138.8L170.24 133.984V141.568C170.24 141.685 170.197 141.787 170.112 141.872C170.026 141.957 169.925 142 169.808 142H169.152C169.034 142 168.933 141.957 168.848 141.872C168.762 141.787 168.72 141.685 168.72 141.568V131.232C168.72 131.115 168.762 131.013 168.848 130.928C168.933 130.843 169.034 130.8 169.152 130.8H169.76C170.058 130.8 170.293 130.971 170.464 131.312L173.696 137.568L176.928 131.312ZM181.423 131.232C181.423 131.115 181.466 131.013 181.551 130.928C181.636 130.843 181.738 130.8 181.855 130.8H186.143C186.986 130.8 187.668 130.965 188.191 131.296C188.714 131.616 189.087 132.005 189.311 132.464C189.535 132.923 189.647 133.371 189.647 133.808C189.647 134.405 189.503 134.891 189.215 135.264C188.927 135.627 188.644 135.893 188.367 136.064C188.815 136.363 189.178 136.747 189.455 137.216C189.743 137.675 189.887 138.187 189.887 138.752C189.887 139.307 189.748 139.835 189.471 140.336C189.204 140.827 188.804 141.227 188.271 141.536C187.738 141.845 187.103 142 186.367 142H181.855C181.738 142 181.636 141.957 181.551 141.872C181.466 141.787 181.423 141.685 181.423 141.568V131.232ZM182.943 135.472H185.983C186.687 135.472 187.22 135.333 187.583 135.056C187.946 134.779 188.127 134.379 188.127 133.856C188.127 133.333 187.946 132.933 187.583 132.656C187.22 132.379 186.687 132.24 185.983 132.24H182.943V135.472ZM182.943 140.56H186.207C186.89 140.56 187.418 140.389 187.791 140.048C188.175 139.696 188.367 139.264 188.367 138.752C188.367 138.229 188.186 137.792 187.823 137.44C187.46 137.088 186.922 136.912 186.207 136.912H182.943V140.56Z" fill="#A0A4AC"/>
<path d="M119 32V34C119 35.5913 119.632 37.1174 120.757 38.2426C121.883 39.3679 123.409 40 125 40H145C146.591 40 148.117 39.3679 149.243 38.2426C150.368 37.1174 151 35.5913 151 34V32M143 16L135 8M135 8L127 16M135 8V32" stroke="#414348" stroke-width="2" stroke-linecap="round" stroke-linejoin="round"/>
</svg>
