<svg width="298" height="152" viewBox="0 0 298 152" fill="none" xmlns="http://www.w3.org/2000/svg">
<path d="M92.856 58.2C93.032 58.2 93.184 58.264 93.312 58.392C93.44 58.52 93.504 58.672 93.504 58.848V68.688C93.504 70.704 92.912 72.304 91.728 73.488C90.544 74.656 88.84 75.24 86.616 75.24C84.376 75.24 82.672 74.656 81.504 73.488C80.336 72.32 79.752 70.72 79.752 68.688V58.848C79.752 58.672 79.816 58.52 79.944 58.392C80.072 58.264 80.224 58.2 80.4 58.2H82.344C82.52 58.2 82.672 58.264 82.8 58.392C82.928 58.52 82.992 58.672 82.992 58.848V68.568C82.992 69.832 83.312 70.76 83.952 71.352C84.592 71.944 85.48 72.24 86.616 72.24C87.752 72.24 88.648 71.944 89.304 71.352C89.96 70.76 90.288 69.832 90.288 68.568V58.848C90.288 58.672 90.352 58.52 90.48 58.392C90.608 58.264 90.76 58.2 90.936 58.2H92.856ZM100.026 78.912C100.026 79.088 99.962 79.24 99.834 79.368C99.706 79.496 99.554 79.56 99.378 79.56H97.554C97.378 79.56 97.226 79.496 97.098 79.368C96.97 79.24 96.906 79.088 96.906 78.912V63.168C96.906 62.992 96.97 62.84 97.098 62.712C97.226 62.584 97.378 62.52 97.554 62.52H99.378C99.554 62.52 99.706 62.584 99.834 62.712C99.962 62.84 100.026 62.992 100.026 63.168V63.72C100.362 63.336 100.826 63 101.418 62.712C102.01 62.424 102.754 62.28 103.65 62.28C104.69 62.28 105.602 62.544 106.386 63.072C107.186 63.584 107.81 64.272 108.258 65.136C108.706 65.984 108.954 66.912 109.002 67.92C109.018 68.08 109.026 68.36 109.026 68.76C109.026 69.16 109.018 69.44 109.002 69.6C108.954 70.608 108.706 71.544 108.258 72.408C107.81 73.256 107.186 73.944 106.386 74.472C105.602 74.984 104.69 75.24 103.65 75.24C102.77 75.24 102.034 75.096 101.442 74.808C100.85 74.52 100.378 74.184 100.026 73.8V78.912ZM105.93 68.76C105.93 67.544 105.658 66.64 105.114 66.048C104.57 65.456 103.842 65.16 102.93 65.16C102.13 65.16 101.466 65.4 100.938 65.88C100.41 66.344 100.106 67 100.026 67.848C100.01 68.008 100.002 68.312 100.002 68.76C100.002 69.208 100.01 69.512 100.026 69.672C100.106 70.488 100.41 71.144 100.938 71.64C101.482 72.12 102.146 72.36 102.93 72.36C103.746 72.36 104.418 72.12 104.946 71.64C105.474 71.16 105.786 70.424 105.882 69.432C105.914 69.112 105.93 68.888 105.93 68.76ZM114.885 74.352C114.885 74.528 114.821 74.68 114.693 74.808C114.565 74.936 114.413 75 114.237 75H112.413C112.237 75 112.085 74.936 111.957 74.808C111.829 74.68 111.765 74.528 111.765 74.352V58.608C111.765 58.432 111.829 58.28 111.957 58.152C112.085 58.024 112.237 57.96 112.413 57.96H114.237C114.413 57.96 114.565 58.024 114.693 58.152C114.821 58.28 114.885 58.432 114.885 58.608V74.352ZM129.707 67.56C129.739 67.944 129.755 68.352 129.755 68.784C129.755 69.2 129.739 69.6 129.707 69.984C129.627 70.96 129.331 71.848 128.819 72.648C128.307 73.448 127.603 74.08 126.707 74.544C125.827 75.008 124.819 75.24 123.683 75.24C122.547 75.24 121.531 75.008 120.635 74.544C119.755 74.08 119.059 73.448 118.547 72.648C118.035 71.848 117.739 70.96 117.659 69.984C117.643 69.792 117.635 69.392 117.635 68.784C117.635 68.16 117.643 67.752 117.659 67.56C117.739 66.568 118.035 65.672 118.547 64.872C119.059 64.072 119.755 63.44 120.635 62.976C121.531 62.512 122.547 62.28 123.683 62.28C124.819 62.28 125.827 62.512 126.707 62.976C127.603 63.44 128.307 64.072 128.819 64.872C129.331 65.672 129.627 66.568 129.707 67.56ZM123.683 65.16C122.915 65.16 122.259 65.352 121.715 65.736C121.187 66.12 120.875 66.768 120.779 67.68C120.763 67.84 120.755 68.2 120.755 68.76C120.755 69.32 120.763 69.68 120.779 69.84C120.875 70.752 121.187 71.4 121.715 71.784C122.259 72.168 122.915 72.36 123.683 72.36C124.451 72.36 125.099 72.168 125.627 71.784C126.171 71.4 126.491 70.752 126.587 69.84C126.619 69.52 126.635 69.16 126.635 68.76C126.635 68.36 126.619 68 126.587 67.68C126.491 66.768 126.171 66.12 125.627 65.736C125.099 65.352 124.451 65.16 123.683 65.16ZM137.597 62.28C139.245 62.28 140.549 62.712 141.509 63.576C142.485 64.44 142.973 65.68 142.973 67.296V74.352C142.973 74.528 142.909 74.68 142.781 74.808C142.653 74.936 142.501 75 142.325 75H140.501C140.325 75 140.173 74.936 140.045 74.808C139.917 74.68 139.853 74.528 139.853 74.352V73.56C139.485 74.072 138.973 74.48 138.317 74.784C137.677 75.088 136.901 75.24 135.989 75.24C134.645 75.24 133.581 74.896 132.797 74.208C132.013 73.504 131.621 72.6 131.621 71.496C131.621 70.424 131.997 69.576 132.749 68.952C133.517 68.312 134.581 67.872 135.941 67.632L139.853 66.96C139.853 66.352 139.645 65.904 139.229 65.616C138.829 65.312 138.285 65.16 137.597 65.16C137.229 65.16 136.925 65.216 136.685 65.328C136.461 65.424 136.237 65.576 136.013 65.784C135.773 66.008 135.509 66.12 135.221 66.12H132.989C132.829 66.12 132.693 66.072 132.581 65.976C132.485 65.864 132.445 65.736 132.461 65.592C132.557 65.096 132.805 64.592 133.205 64.08C133.621 63.568 134.197 63.144 134.933 62.808C135.685 62.456 136.573 62.28 137.597 62.28ZM139.853 69.432L136.589 70.008C135.949 70.12 135.477 70.288 135.173 70.512C134.885 70.72 134.741 71.008 134.741 71.376C134.741 71.696 134.901 71.944 135.221 72.12C135.557 72.28 135.973 72.36 136.469 72.36C137.173 72.36 137.781 72.232 138.293 71.976C138.805 71.72 139.189 71.392 139.445 70.992C139.717 70.576 139.853 70.136 139.853 69.672V69.432ZM154.596 58.608C154.596 58.432 154.66 58.28 154.788 58.152C154.916 58.024 155.068 57.96 155.244 57.96H157.068C157.244 57.96 157.396 58.024 157.524 58.152C157.652 58.28 157.716 58.432 157.716 58.608V74.352C157.716 74.528 157.652 74.68 157.524 74.808C157.396 74.936 157.244 75 157.068 75H155.244C155.068 75 154.916 74.936 154.788 74.808C154.66 74.68 154.596 74.528 154.596 74.352V73.8C154.26 74.184 153.796 74.52 153.204 74.808C152.612 75.096 151.868 75.24 150.972 75.24C149.932 75.24 149.012 74.984 148.212 74.472C147.428 73.944 146.812 73.256 146.364 72.408C145.916 71.544 145.668 70.608 145.62 69.6L145.596 68.76L145.62 67.92C145.668 66.912 145.916 65.984 146.364 65.136C146.812 64.272 147.428 63.584 148.212 63.072C149.012 62.544 149.932 62.28 150.972 62.28C151.852 62.28 152.588 62.424 153.18 62.712C153.772 63 154.244 63.336 154.596 63.72V58.608ZM148.716 68.76C148.716 69.976 148.98 70.88 149.508 71.472C150.052 72.064 150.78 72.36 151.692 72.36C152.492 72.36 153.156 72.128 153.684 71.664C154.212 71.184 154.516 70.52 154.596 69.672C154.628 69.352 154.644 69.048 154.644 68.76C154.644 68.472 154.628 68.168 154.596 67.848C154.516 67.032 154.204 66.384 153.66 65.904C153.132 65.408 152.476 65.16 151.692 65.16C150.876 65.16 150.204 65.4 149.676 65.88C149.148 66.36 148.836 67.096 148.74 68.088C148.724 68.248 148.716 68.472 148.716 68.76ZM171.628 62.28C173.276 62.28 174.58 62.712 175.54 63.576C176.516 64.44 177.004 65.68 177.004 67.296V74.352C177.004 74.528 176.94 74.68 176.812 74.808C176.684 74.936 176.532 75 176.356 75H174.532C174.356 75 174.204 74.936 174.076 74.808C173.948 74.68 173.884 74.528 173.884 74.352V73.56C173.516 74.072 173.004 74.48 172.348 74.784C171.708 75.088 170.932 75.24 170.02 75.24C168.676 75.24 167.612 74.896 166.828 74.208C166.044 73.504 165.652 72.6 165.652 71.496C165.652 70.424 166.028 69.576 166.78 68.952C167.548 68.312 168.612 67.872 169.972 67.632L173.884 66.96C173.884 66.352 173.676 65.904 173.26 65.616C172.86 65.312 172.316 65.16 171.628 65.16C171.26 65.16 170.956 65.216 170.716 65.328C170.492 65.424 170.268 65.576 170.044 65.784C169.804 66.008 169.54 66.12 169.252 66.12H167.02C166.86 66.12 166.724 66.072 166.612 65.976C166.516 65.864 166.476 65.736 166.492 65.592C166.588 65.096 166.836 64.592 167.236 64.08C167.652 63.568 168.228 63.144 168.964 62.808C169.716 62.456 170.604 62.28 171.628 62.28ZM173.884 69.432L170.62 70.008C169.98 70.12 169.508 70.288 169.204 70.512C168.916 70.72 168.772 71.008 168.772 71.376C168.772 71.696 168.932 71.944 169.252 72.12C169.588 72.28 170.004 72.36 170.5 72.36C171.204 72.36 171.812 72.232 172.324 71.976C172.836 71.72 173.22 71.392 173.476 70.992C173.748 70.576 173.884 70.136 173.884 69.672V69.432ZM197.407 74.352C197.407 74.528 197.343 74.68 197.215 74.808C197.087 74.936 196.935 75 196.759 75H194.935C194.759 75 194.607 74.936 194.479 74.808C194.351 74.68 194.287 74.528 194.287 74.352V65.4H189.583V74.352C189.583 74.528 189.519 74.68 189.391 74.808C189.263 74.936 189.111 75 188.935 75H187.111C186.935 75 186.783 74.936 186.655 74.808C186.527 74.68 186.463 74.528 186.463 74.352V65.4H184.879C184.703 65.4 184.551 65.336 184.423 65.208C184.295 65.08 184.231 64.928 184.231 64.752V63.168C184.231 62.992 184.295 62.84 184.423 62.712C184.551 62.584 184.703 62.52 184.879 62.52H186.463V61.44C186.463 59.952 186.871 58.88 187.687 58.224C188.519 57.568 189.695 57.24 191.215 57.24H196.759C196.935 57.24 197.087 57.304 197.215 57.432C197.343 57.56 197.407 57.712 197.407 57.888V59.472C197.407 59.648 197.343 59.8 197.215 59.928C197.087 60.056 196.935 60.12 196.759 60.12H191.455C190.815 60.12 190.343 60.24 190.039 60.48C189.735 60.704 189.583 61.104 189.583 61.68V62.52H196.759C196.935 62.52 197.087 62.584 197.215 62.712C197.343 62.84 197.407 62.992 197.407 63.168V74.352ZM203.831 74.352C203.831 74.528 203.767 74.68 203.639 74.808C203.511 74.936 203.359 75 203.183 75H201.359C201.183 75 201.031 74.936 200.903 74.808C200.775 74.68 200.711 74.528 200.711 74.352V58.608C200.711 58.432 200.775 58.28 200.903 58.152C201.031 58.024 201.183 57.96 201.359 57.96H203.183C203.359 57.96 203.511 58.024 203.639 58.152C203.767 58.28 203.831 58.432 203.831 58.608V74.352ZM212.389 62.28C213.557 62.28 214.589 62.56 215.485 63.12C216.381 63.664 217.069 64.4 217.549 65.328C218.045 66.256 218.293 67.272 218.293 68.376V69.456C218.293 69.632 218.229 69.784 218.101 69.912C217.973 70.04 217.821 70.104 217.645 70.104H209.629C209.629 70.792 209.901 71.344 210.445 71.76C210.989 72.16 211.637 72.36 212.389 72.36C213.269 72.36 213.949 72.176 214.429 71.808C214.605 71.68 214.749 71.592 214.861 71.544C214.973 71.496 215.125 71.472 215.317 71.472H217.237C217.413 71.472 217.565 71.536 217.693 71.664C217.821 71.776 217.885 71.912 217.885 72.072C217.885 72.408 217.661 72.832 217.213 73.344C216.781 73.856 216.149 74.304 215.317 74.688C214.485 75.056 213.509 75.24 212.389 75.24C211.205 75.24 210.165 74.968 209.269 74.424C208.389 73.88 207.709 73.12 207.229 72.144C206.749 71.168 206.509 70.04 206.509 68.76C206.509 67.56 206.749 66.472 207.229 65.496C207.709 64.504 208.397 63.72 209.293 63.144C210.189 62.568 211.221 62.28 212.389 62.28ZM215.053 67.368C214.877 65.896 213.989 65.16 212.389 65.16C211.557 65.16 210.901 65.384 210.421 65.832C209.957 66.28 209.693 66.792 209.629 67.368H215.053Z" fill="#212122"/>
<path d="M8.16 109.8C8.27733 109.8 8.37867 109.843 8.464 109.928C8.54933 110.013 8.592 110.115 8.592 110.232V110.808C8.592 110.925 8.54933 111.027 8.464 111.112C8.37867 111.197 8.27733 111.24 8.16 111.24H2.896V114.936H7.84C7.95733 114.936 8.05867 114.979 8.144 115.064C8.22933 115.149 8.272 115.251 8.272 115.368V115.944C8.272 116.061 8.22933 116.163 8.144 116.248C8.05867 116.333 7.95733 116.376 7.84 116.376H2.896V120.568C2.896 120.685 2.85333 120.787 2.768 120.872C2.68267 120.957 2.58133 121 2.464 121H1.808C1.69067 121 1.58933 120.957 1.504 120.872C1.41867 120.787 1.376 120.685 1.376 120.568V110.232C1.376 110.115 1.41867 110.013 1.504 109.928C1.58933 109.843 1.69067 109.8 1.808 109.8H8.16ZM12.0504 110.984C12.0504 111.101 12.0077 111.203 11.9224 111.288C11.837 111.373 11.7357 111.416 11.6184 111.416H10.7064C10.589 111.416 10.4877 111.373 10.4024 111.288C10.317 111.203 10.2744 111.101 10.2744 110.984V110.072C10.2744 109.955 10.317 109.853 10.4024 109.768C10.4877 109.683 10.589 109.64 10.7064 109.64H11.6184C11.7357 109.64 11.837 109.683 11.9224 109.768C12.0077 109.853 12.0504 109.955 12.0504 110.072V110.984ZM11.8904 120.568C11.8904 120.685 11.8477 120.787 11.7624 120.872C11.677 120.957 11.5757 121 11.4584 121H10.8664C10.749 121 10.6477 120.957 10.5624 120.872C10.477 120.787 10.4344 120.685 10.4344 120.568V113.112C10.4344 112.995 10.477 112.893 10.5624 112.808C10.6477 112.723 10.749 112.68 10.8664 112.68H11.4584C11.5757 112.68 11.677 112.723 11.7624 112.808C11.8477 112.893 11.8904 112.995 11.8904 113.112V120.568ZM15.7498 120.568C15.7498 120.685 15.7071 120.787 15.6218 120.872C15.5364 120.957 15.4351 121 15.3178 121H14.7258C14.6084 121 14.5071 120.957 14.4218 120.872C14.3364 120.787 14.2938 120.685 14.2938 120.568V110.072C14.2938 109.955 14.3364 109.853 14.4218 109.768C14.5071 109.683 14.6084 109.64 14.7258 109.64H15.3178C15.4351 109.64 15.5364 109.683 15.6218 109.768C15.7071 109.853 15.7498 109.955 15.7498 110.072V120.568ZM21.4331 112.52C22.5745 112.52 23.4758 112.883 24.1371 113.608C24.7985 114.333 25.1291 115.32 25.1291 116.568V117C25.1291 117.117 25.0865 117.219 25.0011 117.304C24.9158 117.389 24.8145 117.432 24.6971 117.432H19.1931V117.528C19.2145 118.232 19.4278 118.787 19.8331 119.192C20.2491 119.587 20.7825 119.784 21.4331 119.784C21.9665 119.784 22.3771 119.715 22.6651 119.576C22.9638 119.437 23.2305 119.24 23.4651 118.984C23.5505 118.899 23.6251 118.84 23.6891 118.808C23.7638 118.776 23.8598 118.76 23.9771 118.76H24.4571C24.5851 118.76 24.6918 118.803 24.7771 118.888C24.8625 118.973 24.8998 119.075 24.8891 119.192C24.8465 119.48 24.6865 119.779 24.4091 120.088C24.1425 120.387 23.7531 120.643 23.2411 120.856C22.7398 121.059 22.1371 121.16 21.4331 121.16C20.7505 121.16 20.1425 121.005 19.6091 120.696C19.0758 120.376 18.6491 119.939 18.3291 119.384C18.0198 118.829 17.8331 118.205 17.7691 117.512C17.7478 117.192 17.7371 116.947 17.7371 116.776C17.7371 116.605 17.7478 116.36 17.7691 116.04C17.8331 115.379 18.0198 114.781 18.3291 114.248C18.6491 113.715 19.0705 113.293 19.5931 112.984C20.1265 112.675 20.7398 112.52 21.4331 112.52ZM23.6891 116.088V116.04C23.6891 115.389 23.4811 114.872 23.0651 114.488C22.6598 114.093 22.1158 113.896 21.4331 113.896C20.8145 113.896 20.2865 114.093 19.8491 114.488C19.4225 114.883 19.2038 115.4 19.1931 116.04V116.088H23.6891ZM29.0594 117.304C27.502 116.973 26.7234 116.179 26.7234 114.92C26.7234 114.483 26.8407 114.083 27.0754 113.72C27.31 113.357 27.6567 113.069 28.1154 112.856C28.5847 112.632 29.1554 112.52 29.8274 112.52C30.4887 112.52 31.0594 112.616 31.5394 112.808C32.0194 113 32.382 113.24 32.6274 113.528C32.8834 113.816 33.0114 114.093 33.0114 114.36C33.0114 114.467 32.9687 114.563 32.8834 114.648C32.798 114.723 32.6967 114.76 32.5794 114.76H32.0514C31.8487 114.76 31.6887 114.685 31.5714 114.536C31.2407 114.109 30.6594 113.896 29.8274 113.896C29.3367 113.896 28.9367 113.987 28.6274 114.168C28.3287 114.349 28.1794 114.6 28.1794 114.92C28.1794 115.187 28.254 115.389 28.4034 115.528C28.5527 115.667 28.7767 115.779 29.0754 115.864C29.374 115.949 29.902 116.077 30.6594 116.248C31.598 116.451 32.2647 116.76 32.6594 117.176C33.054 117.592 33.2514 118.099 33.2514 118.696C33.2514 119.133 33.1127 119.539 32.8354 119.912C32.5687 120.285 32.1794 120.589 31.6674 120.824C31.166 121.048 30.5794 121.16 29.9074 121.16C29.246 121.16 28.6594 121.059 28.1474 120.856C27.646 120.643 27.2567 120.387 26.9794 120.088C26.702 119.789 26.5634 119.507 26.5634 119.24C26.5634 119.133 26.606 119.043 26.6914 118.968C26.7767 118.883 26.878 118.84 26.9954 118.84H27.5714C27.6674 118.84 27.7527 118.851 27.8274 118.872C27.902 118.893 27.9714 118.952 28.0354 119.048C28.3874 119.539 29.0114 119.784 29.9074 119.784C30.4087 119.784 30.846 119.683 31.2194 119.48C31.6034 119.267 31.7954 119.005 31.7954 118.696C31.7954 118.44 31.6994 118.237 31.5074 118.088C31.326 117.928 31.0594 117.8 30.7074 117.704C30.3554 117.597 29.806 117.464 29.0594 117.304ZM44.0034 115.736V115.528C44.0034 115.005 43.8274 114.605 43.4754 114.328C43.134 114.04 42.686 113.896 42.1314 113.896C41.7047 113.896 41.3687 113.971 41.1234 114.12C40.8887 114.259 40.6647 114.472 40.4514 114.76C40.3874 114.845 40.318 114.904 40.2434 114.936C40.1687 114.968 40.0674 114.984 39.9394 114.984H39.4594C39.342 114.984 39.2354 114.941 39.1394 114.856C39.054 114.771 39.0167 114.669 39.0274 114.552C39.0594 114.232 39.214 113.917 39.4914 113.608C39.7794 113.288 40.158 113.027 40.6274 112.824C41.0967 112.621 41.598 112.52 42.1314 112.52C43.1234 112.52 43.9234 112.797 44.5314 113.352C45.15 113.907 45.4594 114.685 45.4594 115.688V120.568C45.4594 120.685 45.4167 120.787 45.3314 120.872C45.246 120.957 45.1447 121 45.0274 121H44.4354C44.318 121 44.2167 120.957 44.1314 120.872C44.046 120.787 44.0034 120.685 44.0034 120.568V119.912C43.8327 120.296 43.47 120.6 42.9154 120.824C42.3607 121.048 41.806 121.16 41.2514 121.16C40.7074 121.16 40.222 121.064 39.7954 120.872C39.3687 120.669 39.038 120.397 38.8034 120.056C38.5794 119.715 38.4674 119.331 38.4674 118.904C38.4674 118.104 38.766 117.48 39.3634 117.032C39.9607 116.573 40.7554 116.264 41.7474 116.104L44.0034 115.736ZM44.0034 117.016L42.1154 117.32C41.422 117.427 40.8834 117.603 40.4994 117.848C40.1154 118.083 39.9234 118.381 39.9234 118.744C39.9234 119.011 40.046 119.251 40.2914 119.464C40.5367 119.677 40.91 119.784 41.4114 119.784C42.1794 119.784 42.8034 119.565 43.2834 119.128C43.7634 118.691 44.0034 118.12 44.0034 117.416V117.016ZM51.1538 119.784C52.2204 119.784 52.9404 119.368 53.3138 118.536C53.3884 118.376 53.4631 118.264 53.5378 118.2C53.6124 118.136 53.7138 118.104 53.8418 118.104H54.3218C54.4391 118.104 54.5404 118.147 54.6258 118.232C54.7111 118.307 54.7538 118.397 54.7538 118.504C54.7538 118.867 54.6098 119.256 54.3218 119.672C54.0338 120.088 53.6178 120.44 53.0738 120.728C52.5298 121.016 51.8898 121.16 51.1538 121.16C50.3964 121.16 49.7404 121 49.1858 120.68C48.6311 120.36 48.2044 119.923 47.9058 119.368C47.6071 118.803 47.4418 118.173 47.4098 117.48C47.3991 117.352 47.3938 117.107 47.3938 116.744C47.3938 116.488 47.3991 116.307 47.4098 116.2C47.5058 115.112 47.8738 114.227 48.5138 113.544C49.1538 112.861 50.0338 112.52 51.1538 112.52C51.8898 112.52 52.5244 112.664 53.0578 112.952C53.6018 113.229 54.0124 113.576 54.2898 113.992C54.5778 114.397 54.7324 114.781 54.7538 115.144C54.7644 115.261 54.7218 115.363 54.6258 115.448C54.5404 115.533 54.4391 115.576 54.3218 115.576H53.8418C53.7138 115.576 53.6124 115.544 53.5378 115.48C53.4631 115.416 53.3884 115.304 53.3138 115.144C52.9404 114.312 52.2204 113.896 51.1538 113.896C50.5671 113.896 50.0551 114.093 49.6178 114.488C49.1804 114.883 48.9298 115.48 48.8658 116.28C48.8551 116.397 48.8498 116.589 48.8498 116.856C48.8498 117.101 48.8551 117.283 48.8658 117.4C48.9404 118.2 49.1911 118.797 49.6178 119.192C50.0551 119.587 50.5671 119.784 51.1538 119.784ZM60.0288 119.784C61.0954 119.784 61.8154 119.368 62.1888 118.536C62.2634 118.376 62.3381 118.264 62.4128 118.2C62.4874 118.136 62.5888 118.104 62.7168 118.104H63.1968C63.3141 118.104 63.4154 118.147 63.5008 118.232C63.5861 118.307 63.6288 118.397 63.6288 118.504C63.6288 118.867 63.4848 119.256 63.1968 119.672C62.9088 120.088 62.4928 120.44 61.9488 120.728C61.4048 121.016 60.7648 121.16 60.0288 121.16C59.2714 121.16 58.6154 121 58.0608 120.68C57.5061 120.36 57.0794 119.923 56.7808 119.368C56.4821 118.803 56.3168 118.173 56.2848 117.48C56.2741 117.352 56.2688 117.107 56.2688 116.744C56.2688 116.488 56.2741 116.307 56.2848 116.2C56.3808 115.112 56.7488 114.227 57.3888 113.544C58.0288 112.861 58.9088 112.52 60.0288 112.52C60.7648 112.52 61.3994 112.664 61.9328 112.952C62.4768 113.229 62.8874 113.576 63.1648 113.992C63.4528 114.397 63.6074 114.781 63.6288 115.144C63.6394 115.261 63.5968 115.363 63.5008 115.448C63.4154 115.533 63.3141 115.576 63.1968 115.576H62.7168C62.5888 115.576 62.4874 115.544 62.4128 115.48C62.3381 115.416 62.2634 115.304 62.1888 115.144C61.8154 114.312 61.0954 113.896 60.0288 113.896C59.4421 113.896 58.9301 114.093 58.4928 114.488C58.0554 114.883 57.8048 115.48 57.7408 116.28C57.7301 116.397 57.7248 116.589 57.7248 116.856C57.7248 117.101 57.7301 117.283 57.7408 117.4C57.8154 118.2 58.0661 118.797 58.4928 119.192C58.9301 119.587 59.4421 119.784 60.0288 119.784ZM68.8238 112.52C69.9651 112.52 70.8664 112.883 71.5278 113.608C72.1891 114.333 72.5198 115.32 72.5198 116.568V117C72.5198 117.117 72.4771 117.219 72.3918 117.304C72.3064 117.389 72.2051 117.432 72.0878 117.432H66.5838V117.528C66.6051 118.232 66.8184 118.787 67.2238 119.192C67.6398 119.587 68.1731 119.784 68.8238 119.784C69.3571 119.784 69.7678 119.715 70.0558 119.576C70.3544 119.437 70.6211 119.24 70.8558 118.984C70.9411 118.899 71.0158 118.84 71.0798 118.808C71.1544 118.776 71.2504 118.76 71.3678 118.76H71.8478C71.9758 118.76 72.0824 118.803 72.1678 118.888C72.2531 118.973 72.2904 119.075 72.2798 119.192C72.2371 119.48 72.0771 119.779 71.7998 120.088C71.5331 120.387 71.1438 120.643 70.6318 120.856C70.1304 121.059 69.5278 121.16 68.8238 121.16C68.1411 121.16 67.5331 121.005 66.9998 120.696C66.4664 120.376 66.0398 119.939 65.7198 119.384C65.4104 118.829 65.2238 118.205 65.1598 117.512C65.1384 117.192 65.1278 116.947 65.1278 116.776C65.1278 116.605 65.1384 116.36 65.1598 116.04C65.2238 115.379 65.4104 114.781 65.7198 114.248C66.0398 113.715 66.4611 113.293 66.9838 112.984C67.5171 112.675 68.1304 112.52 68.8238 112.52ZM71.0798 116.088V116.04C71.0798 115.389 70.8718 114.872 70.4558 114.488C70.0504 114.093 69.5064 113.896 68.8238 113.896C68.2051 113.896 67.6771 114.093 67.2398 114.488C66.8131 114.883 66.5944 115.4 66.5838 116.04V116.088H71.0798ZM75.906 123.608C75.906 123.725 75.8633 123.827 75.778 123.912C75.6927 123.997 75.5913 124.04 75.474 124.04H74.882C74.7647 124.04 74.6633 123.997 74.578 123.912C74.4927 123.827 74.45 123.725 74.45 123.608V113.112C74.45 112.995 74.4927 112.893 74.578 112.808C74.6633 112.723 74.7647 112.68 74.882 112.68H75.474C75.5913 112.68 75.6927 112.723 75.778 112.808C75.8633 112.893 75.906 112.995 75.906 113.112V113.608C76.45 112.883 77.2767 112.52 78.386 112.52C79.0473 112.52 79.6447 112.675 80.178 112.984C80.722 113.293 81.154 113.736 81.474 114.312C81.8047 114.888 81.986 115.56 82.018 116.328C82.0287 116.435 82.034 116.605 82.034 116.84C82.034 117.085 82.0287 117.261 82.018 117.368C81.986 118.136 81.8047 118.808 81.474 119.384C81.154 119.949 80.7273 120.387 80.194 120.696C79.6607 121.005 79.058 121.16 78.386 121.16C77.7887 121.16 77.282 121.059 76.866 120.856C76.4607 120.643 76.1407 120.381 75.906 120.072V123.608ZM75.906 117.416C75.938 118.163 76.162 118.744 76.578 119.16C76.994 119.576 77.5433 119.784 78.226 119.784C78.9193 119.784 79.4687 119.56 79.874 119.112C80.29 118.664 80.5193 118.056 80.562 117.288C80.5727 117.181 80.578 117.032 80.578 116.84C80.578 116.648 80.5727 116.499 80.562 116.392C80.5193 115.624 80.29 115.016 79.874 114.568C79.4687 114.12 78.9193 113.896 78.226 113.896C77.5647 113.896 77.0207 114.104 76.594 114.52C76.1673 114.925 75.938 115.469 75.906 116.152L75.89 116.776L75.906 117.416ZM86.0791 118.2C86.0791 118.659 86.1698 119.011 86.3511 119.256C86.5431 119.501 86.9005 119.624 87.4231 119.624H88.2711C88.3885 119.624 88.4898 119.667 88.5751 119.752C88.6605 119.837 88.7031 119.939 88.7031 120.056V120.568C88.7031 120.685 88.6605 120.787 88.5751 120.872C88.4898 120.957 88.3885 121 88.2711 121H87.2631C86.3565 121 85.6898 120.765 85.2631 120.296C84.8365 119.816 84.6231 119.117 84.6231 118.2V114.056H83.4391C83.3218 114.056 83.2205 114.013 83.1351 113.928C83.0498 113.843 83.0071 113.741 83.0071 113.624V113.112C83.0071 112.995 83.0498 112.893 83.1351 112.808C83.2205 112.723 83.3218 112.68 83.4391 112.68H84.6231V110.072C84.6231 109.955 84.6658 109.853 84.7511 109.768C84.8365 109.683 84.9378 109.64 85.0551 109.64H85.6471C85.7645 109.64 85.8658 109.683 85.9511 109.768C86.0365 109.853 86.0791 109.955 86.0791 110.072V112.68H88.1111C88.2285 112.68 88.3298 112.723 88.4151 112.808C88.5005 112.893 88.5431 112.995 88.5431 113.112V113.624C88.5431 113.741 88.5005 113.843 88.4151 113.928C88.3298 114.013 88.2285 114.056 88.1111 114.056H86.0791V118.2ZM93.5894 112.52C94.7307 112.52 95.632 112.883 96.2934 113.608C96.9547 114.333 97.2854 115.32 97.2854 116.568V117C97.2854 117.117 97.2427 117.219 97.1574 117.304C97.072 117.389 96.9707 117.432 96.8534 117.432H91.3494V117.528C91.3707 118.232 91.584 118.787 91.9894 119.192C92.4054 119.587 92.9387 119.784 93.5894 119.784C94.1227 119.784 94.5334 119.715 94.8214 119.576C95.12 119.437 95.3867 119.24 95.6214 118.984C95.7067 118.899 95.7814 118.84 95.8454 118.808C95.92 118.776 96.016 118.76 96.1334 118.76H96.6134C96.7414 118.76 96.848 118.803 96.9334 118.888C97.0187 118.973 97.056 119.075 97.0454 119.192C97.0027 119.48 96.8427 119.779 96.5654 120.088C96.2987 120.387 95.9094 120.643 95.3974 120.856C94.896 121.059 94.2934 121.16 93.5894 121.16C92.9067 121.16 92.2987 121.005 91.7654 120.696C91.232 120.376 90.8054 119.939 90.4854 119.384C90.176 118.829 89.9894 118.205 89.9254 117.512C89.904 117.192 89.8934 116.947 89.8934 116.776C89.8934 116.605 89.904 116.36 89.9254 116.04C89.9894 115.379 90.176 114.781 90.4854 114.248C90.8054 113.715 91.2267 113.293 91.7494 112.984C92.2827 112.675 92.896 112.52 93.5894 112.52ZM95.8454 116.088V116.04C95.8454 115.389 95.6374 114.872 95.2214 114.488C94.816 114.093 94.272 113.896 93.5894 113.896C92.9707 113.896 92.4427 114.093 92.0054 114.488C91.5787 114.883 91.36 115.4 91.3494 116.04V116.088H95.8454ZM104.928 110.072C104.928 109.955 104.97 109.853 105.056 109.768C105.141 109.683 105.242 109.64 105.36 109.64H105.952C106.069 109.64 106.17 109.683 106.256 109.768C106.341 109.853 106.384 109.955 106.384 110.072V120.568C106.384 120.685 106.341 120.787 106.256 120.872C106.17 120.957 106.069 121 105.952 121H105.36C105.242 121 105.141 120.957 105.056 120.872C104.97 120.787 104.928 120.685 104.928 120.568V120.072C104.384 120.797 103.557 121.16 102.448 121.16C101.786 121.16 101.184 121.005 100.64 120.696C100.106 120.387 99.6743 119.944 99.3436 119.368C99.0236 118.792 98.8476 118.12 98.8156 117.352L98.7996 116.824L98.8156 116.312C98.8476 115.544 99.0236 114.877 99.3436 114.312C99.6743 113.736 100.106 113.293 100.64 112.984C101.173 112.675 101.776 112.52 102.448 112.52C103.045 112.52 103.546 112.627 103.952 112.84C104.368 113.043 104.693 113.299 104.928 113.608V110.072ZM104.928 116.264C104.896 115.517 104.672 114.936 104.256 114.52C103.84 114.104 103.29 113.896 102.608 113.896C101.914 113.896 101.36 114.12 100.944 114.568C100.538 115.016 100.314 115.624 100.272 116.392L100.256 116.84L100.272 117.288C100.314 118.056 100.538 118.664 100.944 119.112C101.36 119.56 101.914 119.784 102.608 119.784C103.269 119.784 103.813 119.581 104.24 119.176C104.666 118.76 104.896 118.211 104.928 117.528C104.938 117.421 104.944 117.208 104.944 116.888C104.944 116.579 104.938 116.371 104.928 116.264ZM110.17 113.464C110.287 113.464 110.389 113.507 110.474 113.592C110.559 113.677 110.602 113.779 110.602 113.896V114.968C110.602 115.085 110.559 115.187 110.474 115.272C110.389 115.357 110.287 115.4 110.17 115.4H109.098C108.981 115.4 108.879 115.357 108.794 115.272C108.709 115.187 108.666 115.085 108.666 114.968V113.896C108.666 113.779 108.709 113.677 108.794 113.592C108.879 113.507 108.981 113.464 109.098 113.464H110.17ZM110.17 119.064C110.287 119.064 110.389 119.107 110.474 119.192C110.559 119.277 110.602 119.379 110.602 119.496V120.568C110.602 120.685 110.559 120.787 110.474 120.872C110.389 120.957 110.287 121 110.17 121H109.098C108.981 121 108.879 120.957 108.794 120.872C108.709 120.787 108.666 120.685 108.666 120.568V119.496C108.666 119.379 108.709 119.277 108.794 119.192C108.879 119.107 108.981 119.064 109.098 119.064H110.17ZM124.378 117.08C124.378 118.317 124.02 119.309 123.306 120.056C122.591 120.792 121.578 121.16 120.266 121.16C119.434 121.16 118.708 121 118.09 120.68C117.471 120.36 116.996 119.939 116.666 119.416C116.335 118.883 116.159 118.312 116.138 117.704C116.138 117.608 116.17 117.528 116.234 117.464C116.308 117.389 116.394 117.352 116.49 117.352H117.306C117.487 117.352 117.604 117.469 117.658 117.704C117.775 118.301 118.042 118.787 118.458 119.16C118.884 119.533 119.487 119.72 120.266 119.72C121.172 119.72 121.828 119.48 122.234 119C122.65 118.52 122.858 117.821 122.858 116.904V111.24H117.338C117.22 111.24 117.119 111.197 117.034 111.112C116.948 111.027 116.906 110.925 116.906 110.808V110.232C116.906 110.115 116.948 110.013 117.034 109.928C117.119 109.843 117.22 109.8 117.338 109.8H123.946C124.063 109.8 124.164 109.843 124.25 109.928C124.335 110.013 124.378 110.115 124.378 110.232V117.08ZM131.496 109.8C132.606 109.8 133.523 110.088 134.248 110.664C134.984 111.24 135.352 112.083 135.352 113.192C135.352 113.939 135.176 114.573 134.824 115.096C134.483 115.619 134.019 116.008 133.432 116.264C132.856 116.52 132.211 116.648 131.496 116.648H128.552V120.568C128.552 120.685 128.51 120.787 128.424 120.872C128.339 120.957 128.238 121 128.12 121H127.464C127.347 121 127.246 120.957 127.16 120.872C127.075 120.787 127.032 120.685 127.032 120.568V110.232C127.032 110.115 127.075 110.013 127.16 109.928C127.246 109.843 127.347 109.8 127.464 109.8H131.496ZM131.416 115.208C132.195 115.208 132.792 115.043 133.208 114.712C133.624 114.371 133.832 113.864 133.832 113.192C133.832 111.891 133.027 111.24 131.416 111.24H128.552V115.208H131.416ZM141.427 109.64C142.333 109.64 143.117 109.811 143.779 110.152C144.44 110.483 144.941 110.893 145.283 111.384C145.635 111.864 145.821 112.312 145.843 112.728C145.853 112.824 145.821 112.909 145.747 112.984C145.672 113.048 145.587 113.08 145.491 113.08H144.835C144.589 113.08 144.435 113.021 144.371 112.904C144.061 112.307 143.688 111.853 143.251 111.544C142.824 111.235 142.216 111.08 141.427 111.08C140.531 111.08 139.805 111.336 139.251 111.848C138.696 112.349 138.403 113.075 138.371 114.024C138.36 114.344 138.355 114.787 138.355 115.352C138.355 115.917 138.36 116.36 138.371 116.68C138.403 117.683 138.691 118.44 139.235 118.952C139.789 119.464 140.52 119.72 141.427 119.72C142.355 119.72 143.096 119.48 143.651 119C144.205 118.509 144.483 117.741 144.483 116.696V116.248H142.179C142.061 116.248 141.96 116.205 141.875 116.12C141.789 116.035 141.747 115.933 141.747 115.816V115.24C141.747 115.123 141.789 115.021 141.875 114.936C141.96 114.851 142.061 114.808 142.179 114.808H145.571C145.688 114.808 145.789 114.851 145.875 114.936C145.96 115.021 146.003 115.123 146.003 115.24V116.76C146.003 117.613 145.821 118.376 145.459 119.048C145.096 119.709 144.568 120.227 143.875 120.6C143.192 120.973 142.376 121.16 141.427 121.16C139.955 121.16 138.835 120.755 138.067 119.944C137.299 119.123 136.893 118.061 136.851 116.76C136.84 116.44 136.835 115.971 136.835 115.352C136.835 114.733 136.84 114.264 136.851 113.944C136.883 113.123 137.064 112.392 137.395 111.752C137.736 111.101 138.243 110.589 138.915 110.216C139.597 109.832 140.435 109.64 141.427 109.64ZM147.666 119.688C147.698 119.517 147.767 119.373 147.874 119.256C147.991 119.128 148.151 119.064 148.354 119.064H149.282C149.378 119.064 149.458 119.101 149.522 119.176C149.596 119.24 149.634 119.32 149.634 119.416C149.634 119.459 149.628 119.496 149.618 119.528L148.786 121.688C148.658 122.029 148.428 122.2 148.098 122.2H147.698C147.602 122.2 147.516 122.163 147.442 122.088C147.378 122.024 147.346 121.944 147.346 121.848V121.816L147.666 119.688ZM160.34 109.8C161.449 109.8 162.367 110.088 163.092 110.664C163.828 111.24 164.196 112.083 164.196 113.192C164.196 113.939 164.02 114.573 163.668 115.096C163.327 115.619 162.863 116.008 162.276 116.264C161.7 116.52 161.055 116.648 160.34 116.648H157.396V120.568C157.396 120.685 157.353 120.787 157.268 120.872C157.183 120.957 157.081 121 156.964 121H156.308C156.191 121 156.089 120.957 156.004 120.872C155.919 120.787 155.876 120.685 155.876 120.568V110.232C155.876 110.115 155.919 110.013 156.004 109.928C156.089 109.843 156.191 109.8 156.308 109.8H160.34ZM160.26 115.208C161.039 115.208 161.636 115.043 162.052 114.712C162.468 114.371 162.676 113.864 162.676 113.192C162.676 111.891 161.871 111.24 160.26 111.24H157.396V115.208H160.26ZM173.47 121C173.332 121 173.214 120.957 173.118 120.872C173.022 120.787 172.926 120.669 172.83 120.52L167.63 112.696V120.568C167.63 120.685 167.588 120.787 167.502 120.872C167.417 120.957 167.316 121 167.198 121H166.542C166.425 121 166.324 120.957 166.238 120.872C166.153 120.787 166.11 120.685 166.11 120.568V110.232C166.11 110.115 166.153 110.013 166.238 109.928C166.324 109.843 166.425 109.8 166.542 109.8H167.102C167.241 109.8 167.358 109.843 167.454 109.928C167.55 110.013 167.646 110.131 167.742 110.28L172.942 118.104V110.232C172.942 110.115 172.985 110.013 173.07 109.928C173.156 109.843 173.257 109.8 173.374 109.8H174.03C174.148 109.8 174.249 109.843 174.334 109.928C174.42 110.013 174.462 110.115 174.462 110.232V120.568C174.462 120.685 174.42 120.787 174.334 120.872C174.249 120.957 174.148 121 174.03 121H173.47ZM181.38 109.64C182.286 109.64 183.07 109.811 183.732 110.152C184.393 110.483 184.894 110.893 185.236 111.384C185.588 111.864 185.774 112.312 185.796 112.728C185.806 112.824 185.774 112.909 185.7 112.984C185.625 113.048 185.54 113.08 185.444 113.08H184.788C184.542 113.08 184.388 113.021 184.324 112.904C184.014 112.307 183.641 111.853 183.204 111.544C182.777 111.235 182.169 111.08 181.38 111.08C180.484 111.08 179.758 111.336 179.204 111.848C178.649 112.349 178.356 113.075 178.324 114.024C178.313 114.344 178.308 114.787 178.308 115.352C178.308 115.917 178.313 116.36 178.324 116.68C178.356 117.683 178.644 118.44 179.188 118.952C179.742 119.464 180.473 119.72 181.38 119.72C182.308 119.72 183.049 119.48 183.604 119C184.158 118.509 184.436 117.741 184.436 116.696V116.248H182.132C182.014 116.248 181.913 116.205 181.828 116.12C181.742 116.035 181.7 115.933 181.7 115.816V115.24C181.7 115.123 181.742 115.021 181.828 114.936C181.913 114.851 182.014 114.808 182.132 114.808H185.524C185.641 114.808 185.742 114.851 185.828 114.936C185.913 115.021 185.956 115.123 185.956 115.24V116.76C185.956 117.613 185.774 118.376 185.412 119.048C185.049 119.709 184.521 120.227 183.828 120.6C183.145 120.973 182.329 121.16 181.38 121.16C179.908 121.16 178.788 120.755 178.02 119.944C177.252 119.123 176.846 118.061 176.804 116.76C176.793 116.44 176.788 115.971 176.788 115.352C176.788 114.733 176.793 114.264 176.804 113.944C176.836 113.123 177.017 112.392 177.348 111.752C177.689 111.101 178.196 110.589 178.868 110.216C179.55 109.832 180.388 109.64 181.38 109.64ZM187.619 119.688C187.651 119.517 187.72 119.373 187.827 119.256C187.944 119.128 188.104 119.064 188.307 119.064H189.235C189.331 119.064 189.411 119.101 189.475 119.176C189.55 119.24 189.587 119.32 189.587 119.416C189.587 119.459 189.582 119.496 189.571 119.528L188.739 121.688C188.611 122.029 188.382 122.2 188.051 122.2H187.651C187.555 122.2 187.47 122.163 187.395 122.088C187.331 122.024 187.299 121.944 187.299 121.848V121.816L187.619 119.688ZM203.333 112.536C203.344 112.632 203.312 112.717 203.237 112.792C203.162 112.856 203.077 112.888 202.981 112.888H202.325C202.197 112.888 202.101 112.867 202.037 112.824C201.973 112.771 201.904 112.675 201.829 112.536C201.658 112.205 201.36 111.88 200.933 111.56C200.517 111.24 199.962 111.08 199.269 111.08C198.629 111.08 198.085 111.224 197.637 111.512C197.2 111.8 196.981 112.211 196.981 112.744C196.981 113.107 197.088 113.405 197.301 113.64C197.525 113.864 197.856 114.061 198.293 114.232C198.741 114.392 199.413 114.589 200.309 114.824C201.525 115.144 202.384 115.539 202.885 116.008C203.397 116.467 203.653 117.096 203.653 117.896C203.653 118.536 203.472 119.101 203.109 119.592C202.757 120.083 202.256 120.467 201.605 120.744C200.954 121.021 200.202 121.16 199.349 121.16C198.56 121.16 197.84 121.011 197.189 120.712C196.538 120.413 196.026 120.035 195.653 119.576C195.28 119.107 195.082 118.643 195.061 118.184C195.061 118.088 195.093 118.008 195.157 117.944C195.232 117.869 195.317 117.832 195.413 117.832H196.069C196.186 117.832 196.282 117.859 196.357 117.912C196.432 117.955 196.501 118.045 196.565 118.184C196.736 118.568 197.045 118.92 197.493 119.24C197.952 119.56 198.57 119.72 199.349 119.72C200.128 119.72 200.784 119.555 201.317 119.224C201.861 118.883 202.133 118.44 202.133 117.896C202.133 117.544 201.989 117.251 201.701 117.016C201.424 116.771 201.04 116.568 200.549 116.408C200.058 116.237 199.338 116.029 198.389 115.784C197.354 115.517 196.608 115.133 196.149 114.632C195.69 114.12 195.461 113.491 195.461 112.744C195.461 112.189 195.605 111.677 195.893 111.208C196.181 110.739 196.613 110.36 197.189 110.072C197.765 109.784 198.458 109.64 199.269 109.64C200.08 109.64 200.789 109.8 201.397 110.12C202.005 110.429 202.474 110.813 202.805 111.272C203.136 111.731 203.312 112.152 203.333 112.536ZM212.225 110.2C212.321 109.933 212.529 109.8 212.849 109.8H213.441C213.537 109.8 213.617 109.837 213.681 109.912C213.755 109.976 213.793 110.056 213.793 110.152C213.793 110.205 213.782 110.259 213.761 110.312L210.305 120.36C210.241 120.563 210.134 120.723 209.985 120.84C209.846 120.947 209.67 121 209.457 121H208.817C208.401 121 208.123 120.787 207.985 120.36L204.513 110.312C204.491 110.259 204.481 110.205 204.481 110.152C204.481 110.056 204.513 109.976 204.577 109.912C204.651 109.837 204.737 109.8 204.833 109.8H205.425C205.745 109.8 205.953 109.933 206.049 110.2L209.137 119.4L212.225 110.2ZM219.552 109.64C220.458 109.64 221.242 109.811 221.904 110.152C222.565 110.483 223.066 110.893 223.408 111.384C223.76 111.864 223.946 112.312 223.968 112.728C223.978 112.824 223.946 112.909 223.872 112.984C223.797 113.048 223.712 113.08 223.616 113.08H222.96C222.714 113.08 222.56 113.021 222.496 112.904C222.186 112.307 221.813 111.853 221.376 111.544C220.949 111.235 220.341 111.08 219.552 111.08C218.656 111.08 217.93 111.336 217.376 111.848C216.821 112.349 216.528 113.075 216.496 114.024C216.485 114.344 216.48 114.787 216.48 115.352C216.48 115.917 216.485 116.36 216.496 116.68C216.528 117.683 216.816 118.44 217.36 118.952C217.914 119.464 218.645 119.72 219.552 119.72C220.48 119.72 221.221 119.48 221.776 119C222.33 118.509 222.608 117.741 222.608 116.696V116.248H220.304C220.186 116.248 220.085 116.205 220 116.12C219.914 116.035 219.872 115.933 219.872 115.816V115.24C219.872 115.123 219.914 115.021 220 114.936C220.085 114.851 220.186 114.808 220.304 114.808H223.696C223.813 114.808 223.914 114.851 224 114.936C224.085 115.021 224.128 115.123 224.128 115.24V116.76C224.128 117.613 223.946 118.376 223.584 119.048C223.221 119.709 222.693 120.227 222 120.6C221.317 120.973 220.501 121.16 219.552 121.16C218.08 121.16 216.96 120.755 216.192 119.944C215.424 119.123 215.018 118.061 214.976 116.76C214.965 116.44 214.96 115.971 214.96 115.352C214.96 114.733 214.965 114.264 214.976 113.944C215.008 113.123 215.189 112.392 215.52 111.752C215.861 111.101 216.368 110.589 217.04 110.216C217.722 109.832 218.56 109.64 219.552 109.64ZM225.791 119.688C225.823 119.517 225.892 119.373 225.999 119.256C226.116 119.128 226.276 119.064 226.479 119.064H227.407C227.503 119.064 227.583 119.101 227.647 119.176C227.721 119.24 227.759 119.32 227.759 119.416C227.759 119.459 227.753 119.496 227.743 119.528L226.911 121.688C226.783 122.029 226.553 122.2 226.223 122.2H225.823C225.727 122.2 225.641 122.163 225.567 122.088C225.503 122.024 225.471 121.944 225.471 121.848V121.816L225.791 119.688ZM242.209 110.312C242.38 109.971 242.614 109.8 242.913 109.8H243.521C243.638 109.8 243.74 109.843 243.825 109.928C243.91 110.013 243.953 110.115 243.953 110.232V120.568C243.953 120.685 243.91 120.787 243.825 120.872C243.74 120.957 243.638 121 243.521 121H242.865C242.748 121 242.646 120.957 242.561 120.872C242.476 120.787 242.433 120.685 242.433 120.568V112.984L239.937 117.8C239.852 117.971 239.756 118.099 239.649 118.184C239.553 118.269 239.43 118.312 239.281 118.312H238.673C238.524 118.312 238.396 118.269 238.289 118.184C238.193 118.099 238.102 117.971 238.017 117.8L235.521 112.984V120.568C235.521 120.685 235.478 120.787 235.393 120.872C235.308 120.957 235.206 121 235.089 121H234.433C234.316 121 234.214 120.957 234.129 120.872C234.044 120.787 234.001 120.685 234.001 120.568V110.232C234.001 110.115 234.044 110.013 234.129 109.928C234.214 109.843 234.316 109.8 234.433 109.8H235.041C235.34 109.8 235.574 109.971 235.745 110.312L238.977 116.568L242.209 110.312ZM251.168 109.8C252.277 109.8 253.195 110.088 253.92 110.664C254.656 111.24 255.024 112.083 255.024 113.192C255.024 113.939 254.848 114.573 254.496 115.096C254.155 115.619 253.691 116.008 253.104 116.264C252.528 116.52 251.883 116.648 251.168 116.648H248.224V120.568C248.224 120.685 248.181 120.787 248.096 120.872C248.011 120.957 247.909 121 247.792 121H247.136C247.019 121 246.917 120.957 246.832 120.872C246.747 120.787 246.704 120.685 246.704 120.568V110.232C246.704 110.115 246.747 110.013 246.832 109.928C246.917 109.843 247.019 109.8 247.136 109.8H251.168ZM251.088 115.208C251.867 115.208 252.464 115.043 252.88 114.712C253.296 114.371 253.504 113.864 253.504 113.192C253.504 111.891 252.699 111.24 251.088 111.24H248.224V115.208H251.088ZM261.571 121C261.453 121 261.352 120.957 261.267 120.872C261.181 120.787 261.139 120.685 261.139 120.568V118.36H256.115C255.997 118.36 255.896 118.317 255.811 118.232C255.725 118.147 255.683 118.045 255.683 117.928V117.352C255.683 117.277 255.704 117.192 255.747 117.096C255.789 116.989 255.843 116.893 255.907 116.808L260.963 110.184C261.155 109.928 261.363 109.8 261.587 109.8H262.227C262.344 109.8 262.445 109.843 262.531 109.928C262.616 110.013 262.659 110.115 262.659 110.232V116.92H264.035C264.152 116.92 264.253 116.963 264.339 117.048C264.424 117.133 264.467 117.235 264.467 117.352V117.928C264.467 118.045 264.424 118.147 264.339 118.232C264.253 118.317 264.152 118.36 264.035 118.36H262.659V120.568C262.659 120.685 262.616 120.787 262.531 120.872C262.445 120.957 262.344 121 262.227 121H261.571ZM261.139 112.408L257.667 116.92H261.139V112.408ZM265.869 119.688C265.901 119.517 265.97 119.373 266.077 119.256C266.194 119.128 266.354 119.064 266.557 119.064H267.485C267.581 119.064 267.661 119.101 267.725 119.176C267.8 119.24 267.837 119.32 267.837 119.416C267.837 119.459 267.832 119.496 267.821 119.528L266.989 121.688C266.861 122.029 266.632 122.2 266.301 122.2H265.901C265.805 122.2 265.72 122.163 265.645 122.088C265.581 122.024 265.549 121.944 265.549 121.848V121.816L265.869 119.688ZM274.922 118.472L274.09 120.6C273.994 120.867 273.786 121 273.466 121H272.874C272.778 121 272.692 120.968 272.618 120.904C272.554 120.829 272.522 120.744 272.522 120.648C272.522 120.595 272.543 120.52 272.586 120.424L276.506 110.328C276.644 109.976 276.884 109.8 277.226 109.8H278.186C278.527 109.8 278.767 109.976 278.906 110.328L282.81 120.424C282.852 120.52 282.874 120.595 282.874 120.648C282.874 120.744 282.836 120.829 282.762 120.904C282.698 120.968 282.618 121 282.522 121H281.93C281.61 121 281.402 120.867 281.306 120.6L280.474 118.472H274.922ZM279.914 117.032L277.706 111.32L275.482 117.032H279.914ZM290.647 110.2C290.743 109.933 290.951 109.8 291.271 109.8H291.863C291.959 109.8 292.039 109.837 292.103 109.912C292.177 109.976 292.215 110.056 292.215 110.152C292.215 110.205 292.204 110.259 292.183 110.312L288.727 120.36C288.663 120.563 288.556 120.723 288.407 120.84C288.268 120.947 288.092 121 287.879 121H287.239C286.823 121 286.545 120.787 286.407 120.36L282.935 110.312C282.913 110.259 282.903 110.205 282.903 110.152C282.903 110.056 282.935 109.976 282.999 109.912C283.073 109.837 283.159 109.8 283.255 109.8H283.847C284.167 109.8 284.375 109.933 284.471 110.2L287.559 119.4L290.647 110.2ZM294.558 121C294.441 121 294.339 120.957 294.254 120.872C294.169 120.787 294.126 120.685 294.126 120.568V110.232C294.126 110.115 294.169 110.013 294.254 109.928C294.339 109.843 294.441 109.8 294.558 109.8H295.214C295.331 109.8 295.433 109.843 295.518 109.928C295.603 110.013 295.646 110.115 295.646 110.232V120.568C295.646 120.685 295.603 120.787 295.518 120.872C295.433 120.957 295.331 121 295.214 121H294.558Z" fill="#A0A4AC"/>
<path d="M101.584 134.312C101.755 133.971 101.989 133.8 102.288 133.8H102.896C103.013 133.8 103.115 133.843 103.2 133.928C103.285 134.013 103.328 134.115 103.328 134.232V144.568C103.328 144.685 103.285 144.787 103.2 144.872C103.115 144.957 103.013 145 102.896 145H102.24C102.123 145 102.021 144.957 101.936 144.872C101.851 144.787 101.808 144.685 101.808 144.568V136.984L99.312 141.8C99.2267 141.971 99.1307 142.099 99.024 142.184C98.928 142.269 98.8053 142.312 98.656 142.312H98.048C97.8987 142.312 97.7707 142.269 97.664 142.184C97.568 142.099 97.4773 141.971 97.392 141.8L94.896 136.984V144.568C94.896 144.685 94.8533 144.787 94.768 144.872C94.6827 144.957 94.5813 145 94.464 145H93.808C93.6907 145 93.5893 144.957 93.504 144.872C93.4187 144.787 93.376 144.685 93.376 144.568V134.232C93.376 134.115 93.4187 134.013 93.504 133.928C93.5893 133.843 93.6907 133.8 93.808 133.8H94.416C94.7147 133.8 94.9493 133.971 95.12 134.312L98.352 140.568L101.584 134.312ZM110.847 139.736V139.528C110.847 139.005 110.671 138.605 110.319 138.328C109.978 138.04 109.53 137.896 108.975 137.896C108.548 137.896 108.212 137.971 107.967 138.12C107.732 138.259 107.508 138.472 107.295 138.76C107.231 138.845 107.162 138.904 107.087 138.936C107.012 138.968 106.911 138.984 106.783 138.984H106.303C106.186 138.984 106.079 138.941 105.983 138.856C105.898 138.771 105.86 138.669 105.871 138.552C105.903 138.232 106.058 137.917 106.335 137.608C106.623 137.288 107.002 137.027 107.471 136.824C107.94 136.621 108.442 136.52 108.975 136.52C109.967 136.52 110.767 136.797 111.375 137.352C111.994 137.907 112.303 138.685 112.303 139.688V144.568C112.303 144.685 112.26 144.787 112.175 144.872C112.09 144.957 111.988 145 111.871 145H111.279C111.162 145 111.06 144.957 110.975 144.872C110.89 144.787 110.847 144.685 110.847 144.568V143.912C110.676 144.296 110.314 144.6 109.759 144.824C109.204 145.048 108.65 145.16 108.095 145.16C107.551 145.16 107.066 145.064 106.639 144.872C106.212 144.669 105.882 144.397 105.647 144.056C105.423 143.715 105.311 143.331 105.311 142.904C105.311 142.104 105.61 141.48 106.207 141.032C106.804 140.573 107.599 140.264 108.591 140.104L110.847 139.736ZM110.847 141.016L108.959 141.32C108.266 141.427 107.727 141.603 107.343 141.848C106.959 142.083 106.767 142.381 106.767 142.744C106.767 143.011 106.89 143.251 107.135 143.464C107.38 143.677 107.754 143.784 108.255 143.784C109.023 143.784 109.647 143.565 110.127 143.128C110.607 142.691 110.847 142.12 110.847 141.416V141.016ZM115.534 144.696C115.459 144.781 115.384 144.856 115.31 144.92C115.235 144.973 115.139 145 115.022 145H114.286C114.179 145 114.088 144.963 114.014 144.888C113.939 144.813 113.902 144.728 113.902 144.632C113.902 144.547 113.923 144.472 113.965 144.408L116.894 140.744L114.126 137.272C114.083 137.208 114.062 137.133 114.062 137.048C114.062 136.952 114.099 136.867 114.174 136.792C114.248 136.717 114.339 136.68 114.446 136.68H115.214C115.331 136.68 115.427 136.712 115.502 136.776C115.576 136.829 115.651 136.899 115.726 136.984L117.854 139.656L119.966 136.984C120.04 136.899 120.115 136.829 120.19 136.776C120.264 136.712 120.36 136.68 120.478 136.68H121.214C121.32 136.68 121.411 136.717 121.486 136.792C121.56 136.867 121.598 136.952 121.598 137.048C121.598 137.133 121.576 137.208 121.534 137.272L118.75 140.776L121.646 144.408C121.688 144.472 121.71 144.547 121.71 144.632C121.71 144.728 121.672 144.813 121.598 144.888C121.523 144.963 121.432 145 121.326 145H120.558C120.44 145 120.344 144.973 120.27 144.92C120.195 144.856 120.12 144.781 120.046 144.696L117.79 141.864L115.534 144.696ZM124.715 143.064C124.832 143.064 124.934 143.107 125.019 143.192C125.104 143.277 125.147 143.379 125.147 143.496V144.568C125.147 144.685 125.104 144.787 125.019 144.872C124.934 144.957 124.832 145 124.715 145H123.643C123.526 145 123.424 144.957 123.339 144.872C123.254 144.787 123.211 144.685 123.211 144.568V143.496C123.211 143.379 123.254 143.277 123.339 143.192C123.424 143.107 123.526 143.064 123.643 143.064H124.715ZM133.263 141.304C131.705 140.973 130.927 140.179 130.927 138.92C130.927 138.483 131.044 138.083 131.279 137.72C131.513 137.357 131.86 137.069 132.319 136.856C132.788 136.632 133.359 136.52 134.031 136.52C134.692 136.52 135.263 136.616 135.743 136.808C136.223 137 136.585 137.24 136.831 137.528C137.087 137.816 137.215 138.093 137.215 138.36C137.215 138.467 137.172 138.563 137.087 138.648C137.001 138.723 136.9 138.76 136.783 138.76H136.255C136.052 138.76 135.892 138.685 135.775 138.536C135.444 138.109 134.863 137.896 134.031 137.896C133.54 137.896 133.14 137.987 132.831 138.168C132.532 138.349 132.383 138.6 132.383 138.92C132.383 139.187 132.457 139.389 132.607 139.528C132.756 139.667 132.98 139.779 133.279 139.864C133.577 139.949 134.105 140.077 134.863 140.248C135.801 140.451 136.468 140.76 136.863 141.176C137.257 141.592 137.455 142.099 137.455 142.696C137.455 143.133 137.316 143.539 137.039 143.912C136.772 144.285 136.383 144.589 135.871 144.824C135.369 145.048 134.783 145.16 134.111 145.16C133.449 145.16 132.863 145.059 132.351 144.856C131.849 144.643 131.46 144.387 131.183 144.088C130.905 143.789 130.767 143.507 130.767 143.24C130.767 143.133 130.809 143.043 130.895 142.968C130.98 142.883 131.081 142.84 131.199 142.84H131.775C131.871 142.84 131.956 142.851 132.031 142.872C132.105 142.893 132.175 142.952 132.239 143.048C132.591 143.539 133.215 143.784 134.111 143.784C134.612 143.784 135.049 143.683 135.423 143.48C135.807 143.267 135.999 143.005 135.999 142.696C135.999 142.44 135.903 142.237 135.711 142.088C135.529 141.928 135.263 141.8 134.911 141.704C134.559 141.597 134.009 141.464 133.263 141.304ZM140.972 134.984C140.972 135.101 140.93 135.203 140.844 135.288C140.759 135.373 140.658 135.416 140.54 135.416H139.628C139.511 135.416 139.41 135.373 139.324 135.288C139.239 135.203 139.196 135.101 139.196 134.984V134.072C139.196 133.955 139.239 133.853 139.324 133.768C139.41 133.683 139.511 133.64 139.628 133.64H140.54C140.658 133.64 140.759 133.683 140.844 133.768C140.93 133.853 140.972 133.955 140.972 134.072V134.984ZM140.812 144.568C140.812 144.685 140.77 144.787 140.684 144.872C140.599 144.957 140.498 145 140.38 145H139.788C139.671 145 139.57 144.957 139.484 144.872C139.399 144.787 139.356 144.685 139.356 144.568V137.112C139.356 136.995 139.399 136.893 139.484 136.808C139.57 136.723 139.671 136.68 139.788 136.68H140.38C140.498 136.68 140.599 136.723 140.684 136.808C140.77 136.893 140.812 136.995 140.812 137.112V144.568ZM149.168 143.624C149.285 143.624 149.386 143.667 149.472 143.752C149.557 143.837 149.6 143.939 149.6 144.056V144.568C149.6 144.685 149.557 144.787 149.472 144.872C149.386 144.957 149.285 145 149.168 145H143.12C143.002 145 142.901 144.957 142.816 144.872C142.73 144.787 142.688 144.685 142.688 144.568V143.944C142.688 143.816 142.762 143.661 142.912 143.48L147.312 138.056H143.28C143.162 138.056 143.061 138.013 142.976 137.928C142.89 137.843 142.848 137.741 142.848 137.624V137.112C142.848 136.995 142.89 136.893 142.976 136.808C143.061 136.723 143.162 136.68 143.28 136.68H148.848C148.965 136.68 149.066 136.723 149.152 136.808C149.237 136.893 149.28 136.995 149.28 137.112V137.736C149.28 137.843 149.248 137.939 149.184 138.024C149.12 138.109 149.077 138.168 149.056 138.2L144.624 143.624H149.168ZM154.558 136.52C155.699 136.52 156.601 136.883 157.262 137.608C157.923 138.333 158.254 139.32 158.254 140.568V141C158.254 141.117 158.211 141.219 158.126 141.304C158.041 141.389 157.939 141.432 157.822 141.432H152.318V141.528C152.339 142.232 152.553 142.787 152.958 143.192C153.374 143.587 153.907 143.784 154.558 143.784C155.091 143.784 155.502 143.715 155.79 143.576C156.089 143.437 156.355 143.24 156.59 142.984C156.675 142.899 156.75 142.84 156.814 142.808C156.889 142.776 156.985 142.76 157.102 142.76H157.582C157.71 142.76 157.817 142.803 157.902 142.888C157.987 142.973 158.025 143.075 158.014 143.192C157.971 143.48 157.811 143.779 157.534 144.088C157.267 144.387 156.878 144.643 156.366 144.856C155.865 145.059 155.262 145.16 154.558 145.16C153.875 145.16 153.267 145.005 152.734 144.696C152.201 144.376 151.774 143.939 151.454 143.384C151.145 142.829 150.958 142.205 150.894 141.512C150.873 141.192 150.862 140.947 150.862 140.776C150.862 140.605 150.873 140.36 150.894 140.04C150.958 139.379 151.145 138.781 151.454 138.248C151.774 137.715 152.195 137.293 152.718 136.984C153.251 136.675 153.865 136.52 154.558 136.52ZM156.814 140.088V140.04C156.814 139.389 156.606 138.872 156.19 138.488C155.785 138.093 155.241 137.896 154.558 137.896C153.939 137.896 153.411 138.093 152.974 138.488C152.547 138.883 152.329 139.4 152.318 140.04V140.088H156.814ZM168.699 139.112C169.04 138.803 169.285 138.499 169.435 138.2C169.584 137.901 169.659 137.523 169.659 137.064C169.659 136.467 169.488 135.987 169.147 135.624C168.805 135.261 168.288 135.08 167.595 135.08C166.912 135.08 166.4 135.261 166.059 135.624C165.717 135.976 165.472 136.456 165.323 137.064C165.291 137.181 165.237 137.272 165.163 137.336C165.088 137.4 165.003 137.432 164.907 137.432H164.171C164.075 137.432 163.989 137.4 163.915 137.336C163.851 137.261 163.819 137.176 163.819 137.08C163.84 136.536 164 135.997 164.299 135.464C164.608 134.931 165.045 134.493 165.611 134.152C166.176 133.811 166.837 133.64 167.595 133.64C168.352 133.64 168.997 133.795 169.531 134.104C170.075 134.403 170.485 134.813 170.763 135.336C171.04 135.848 171.179 136.424 171.179 137.064C171.179 137.736 171.061 138.312 170.827 138.792C170.603 139.261 170.213 139.741 169.659 140.232L166.091 143.56H170.987C171.104 143.56 171.205 143.603 171.291 143.688C171.376 143.773 171.419 143.875 171.419 143.992V144.568C171.419 144.685 171.376 144.787 171.291 144.872C171.205 144.957 171.104 145 170.987 145H164.091C163.973 145 163.872 144.957 163.787 144.872C163.701 144.787 163.659 144.685 163.659 144.568V143.992C163.659 143.875 163.68 143.779 163.723 143.704C163.776 143.619 163.872 143.512 164.011 143.384L168.699 139.112ZM181.355 140.76C181.334 142.083 180.982 143.149 180.299 143.96C179.627 144.76 178.619 145.16 177.275 145.16C175.931 145.16 174.918 144.76 174.235 143.96C173.563 143.149 173.216 142.083 173.195 140.76L173.179 139.4L173.195 138.056C173.216 136.733 173.563 135.667 174.235 134.856C174.918 134.045 175.931 133.64 177.275 133.64C178.619 133.64 179.627 134.045 180.299 134.856C180.982 135.667 181.334 136.733 181.355 138.056C181.366 138.376 181.371 138.824 181.371 139.4C181.371 139.987 181.366 140.44 181.355 140.76ZM177.275 143.72C178.95 143.72 179.808 142.733 179.851 140.76C179.862 140.44 179.867 139.987 179.867 139.4C179.867 138.824 179.862 138.376 179.851 138.056C179.808 136.072 178.95 135.08 177.275 135.08C175.6 135.08 174.742 136.072 174.699 138.056L174.683 139.4L174.699 140.76C174.742 142.733 175.6 143.72 177.275 143.72ZM191.928 134.312C192.098 133.971 192.333 133.8 192.632 133.8H193.24C193.357 133.8 193.458 133.843 193.544 133.928C193.629 134.013 193.672 134.115 193.672 134.232V144.568C193.672 144.685 193.629 144.787 193.544 144.872C193.458 144.957 193.357 145 193.24 145H192.584C192.466 145 192.365 144.957 192.28 144.872C192.194 144.787 192.152 144.685 192.152 144.568V136.984L189.656 141.8C189.57 141.971 189.474 142.099 189.368 142.184C189.272 142.269 189.149 142.312 189 142.312H188.392C188.242 142.312 188.114 142.269 188.008 142.184C187.912 142.099 187.821 141.971 187.736 141.8L185.24 136.984V144.568C185.24 144.685 185.197 144.787 185.112 144.872C185.026 144.957 184.925 145 184.808 145H184.152C184.034 145 183.933 144.957 183.848 144.872C183.762 144.787 183.72 144.685 183.72 144.568V134.232C183.72 134.115 183.762 134.013 183.848 133.928C183.933 133.843 184.034 133.8 184.152 133.8H184.76C185.058 133.8 185.293 133.971 185.464 134.312L188.696 140.568L191.928 134.312ZM196.423 134.232C196.423 134.115 196.466 134.013 196.551 133.928C196.636 133.843 196.738 133.8 196.855 133.8H201.143C201.986 133.8 202.668 133.965 203.191 134.296C203.714 134.616 204.087 135.005 204.311 135.464C204.535 135.923 204.647 136.371 204.647 136.808C204.647 137.405 204.503 137.891 204.215 138.264C203.927 138.627 203.644 138.893 203.367 139.064C203.815 139.363 204.178 139.747 204.455 140.216C204.743 140.675 204.887 141.187 204.887 141.752C204.887 142.307 204.748 142.835 204.471 143.336C204.204 143.827 203.804 144.227 203.271 144.536C202.738 144.845 202.103 145 201.367 145H196.855C196.738 145 196.636 144.957 196.551 144.872C196.466 144.787 196.423 144.685 196.423 144.568V134.232ZM197.943 138.472H200.983C201.687 138.472 202.22 138.333 202.583 138.056C202.946 137.779 203.127 137.379 203.127 136.856C203.127 136.333 202.946 135.933 202.583 135.656C202.22 135.379 201.687 135.24 200.983 135.24H197.943V138.472ZM197.943 143.56H201.207C201.89 143.56 202.418 143.389 202.791 143.048C203.175 142.696 203.367 142.264 203.367 141.752C203.367 141.229 203.186 140.792 202.823 140.44C202.46 140.088 201.922 139.912 201.207 139.912H197.943V143.56Z" fill="#A0A4AC"/>
<path d="M134 32V34C134 35.5913 134.632 37.1174 135.757 38.2426C136.883 39.3679 138.409 40 140 40H160C161.591 40 163.117 39.3679 164.243 38.2426C165.368 37.1174 166 35.5913 166 34V32M158 16L150 8M150 8L142 16M150 8V32" stroke="#414348" stroke-width="2" stroke-linecap="round" stroke-linejoin="round"/>
</svg>
